<svg xmlns="http://www.w3.org/2000/svg" xmlns:xlink="http://www.w3.org/1999/xlink" width="1366" zoomAndPan="magnify" viewBox="0 0 1024.5 576" height="768" preserveAspectRatio="xMidYMid meet" version="1.0"><defs><clipPath id="3c791648c8"><path d="M 0 0.140625 L 1024 0.140625 L 1024 575.859375 L 0 575.859375 Z M 0 0.140625 " clip-rule="nonzero"/></clipPath><clipPath id="f6c45711ec"><path d="M 0 0.140625 L 87 0.140625 L 87 224 L 0 224 Z M 0 0.140625 " clip-rule="nonzero"/></clipPath><clipPath id="db8abb7a40"><path d="M 75 94 L 121.667969 94 L 121.667969 115 L 75 115 Z M 75 94 " clip-rule="nonzero"/></clipPath><clipPath id="308e04e737"><path d="M 0 216 L 46 216 L 46 230.277344 L 0 230.277344 Z M 0 216 " clip-rule="nonzero"/></clipPath></defs><g clip-path="url(#3c791648c8)"><path fill="#ffffff" d="M 0 0.140625 L 1024 0.140625 L 1024 575.859375 L 0 575.859375 Z M 0 0.140625 " fill-opacity="1" fill-rule="nonzero"/><path fill="#008241" d="M 0 0.140625 L 1024 0.140625 L 1024 575.859375 L 0 575.859375 Z M 0 0.140625 " fill-opacity="1" fill-rule="nonzero"/></g><g clip-path="url(#f6c45711ec)"><path fill="#ffffff" d="M 0.40625 210.75 C 0.328125 210.800781 0.246094 210.847656 0.167969 210.898438 C 0.246094 210.847656 0.328125 210.800781 0.40625 210.75 M 86.828125 0.261719 C 84.832031 6.195312 82.601562 12.070312 81.109375 18.160156 C 79.578125 24.410156 78.269531 30.738281 78.003906 37.183594 C 77.882812 40.121094 78.027344 43.050781 78.5 45.953125 C 78.957031 48.746094 79.726562 51.484375 80.53125 54.191406 C 81.292969 56.746094 82.097656 59.28125 82.753906 61.863281 C 83.4375 64.566406 83.898438 67.316406 84.023438 70.101562 C 84.082031 72.910156 83.753906 75.710938 83.363281 78.492188 C 82.933594 81.523438 82.335938 84.53125 81.632812 87.511719 C 78.949219 98.574219 74.753906 109.179688 70.195312 119.585938 C 68.28125 123.949219 66.339844 128.300781 64.273438 132.589844 C 62.554688 136.167969 60.734375 139.691406 58.839844 143.179688 C 54.378906 151.324219 49.476562 159.234375 44.136719 166.835938 C 38.53125 174.8125 32.417969 182.441406 25.722656 189.53125 C 18.046875 197.605469 9.589844 204.992188 0.132812 210.917969 C -1.878906 212.160156 -3.929688 213.335938 -6.023438 214.429688 C -8.175781 215.550781 -10.386719 216.566406 -12.589844 217.585938 C -16.960938 219.613281 -21.410156 221.472656 -25.980469 223.011719 C -25.988281 223.015625 -25.984375 223.019531 -25.980469 223.019531 C -23.40625 222.886719 -20.859375 222.554688 -18.335938 222.023438 C -15.796875 221.488281 -13.300781 220.730469 -10.878906 219.808594 C -8.40625 218.871094 -6.035156 217.671875 -3.707031 216.421875 C -1.320312 215.144531 1 213.742188 3.273438 212.277344 C 12.75 206.175781 21.171875 198.558594 28.84375 190.34375 C 36.707031 181.925781 43.734375 172.738281 50.105469 163.152344 C 56.054688 154.203125 61.414062 144.851562 66.160156 135.214844 C 67.265625 132.964844 68.328125 130.699219 69.363281 128.417969 C 70.839844 125.167969 72.300781 121.90625 73.722656 118.628906 C 76.628906 111.914062 79.335938 105.105469 81.585938 98.136719 C 83.796875 91.28125 85.523438 84.238281 86.425781 77.082031 C 86.632812 75.433594 86.804688 73.773438 86.859375 72.109375 C 86.921875 70.457031 86.828125 68.796875 86.648438 67.152344 C 86.320312 64.125 85.550781 61.15625 84.703125 58.234375 C 83.894531 55.433594 82.988281 52.660156 82.257812 49.839844 C 81.476562 46.839844 80.949219 43.785156 80.820312 40.6875 C 80.667969 33.71875 81.949219 26.835938 83.554688 20.082031 C 83.53125 20.175781 83.507812 20.265625 83.488281 20.355469 C 83.878906 18.722656 84.285156 17.089844 84.648438 15.449219 C 85.019531 13.773438 85.351562 12.085938 85.648438 10.390625 C 86.246094 7.042969 86.660156 3.660156 86.835938 0.261719 C 86.835938 0.257812 86.835938 0.257812 86.835938 0.257812 C 86.832031 0.257812 86.832031 0.257812 86.828125 0.261719 " fill-opacity="1" fill-rule="nonzero"/></g><path fill="#ffffff" d="M 91.320312 34.386719 C 91.328125 34.445312 91.332031 34.507812 91.335938 34.5625 C 91.328125 34.503906 91.324219 34.445312 91.320312 34.386719 M 84.589844 9.96875 C 83.964844 14.1875 85.472656 18.316406 87.125 22.125 C 88.175781 24.542969 89.371094 26.914062 90.253906 29.398438 C 90.796875 31 91.179688 32.648438 91.316406 34.332031 C 91.40625 35.929688 91.292969 37.546875 91.140625 39.136719 C 90.972656 40.8125 90.707031 42.480469 90.382812 44.132812 C 89.816406 46.867188 89.066406 49.566406 88.386719 52.277344 C 87.6875 55.082031 87.011719 57.898438 86.4375 60.734375 C 86.121094 62.3125 85.84375 63.898438 85.621094 65.496094 C 85.621094 65.503906 85.628906 65.503906 85.628906 65.5 C 87.90625 60.28125 90.382812 55.117188 91.96875 49.636719 C 92.363281 48.273438 92.691406 46.886719 92.984375 45.5 C 93.304688 44.015625 93.578125 42.523438 93.785156 41.015625 C 93.976562 39.605469 94.105469 38.1875 94.164062 36.765625 C 94.214844 35.460938 94.1875 34.164062 94.023438 32.871094 C 93.730469 30.632812 93.003906 28.464844 92.132812 26.390625 C 91.296875 24.414062 90.214844 22.546875 89.132812 20.695312 C 87.753906 18.332031 86.328125 15.957031 85.410156 13.371094 C 85.027344 12.265625 84.746094 11.128906 84.597656 9.96875 C 84.59375 9.964844 84.589844 9.96875 84.589844 9.96875 " fill-opacity="1" fill-rule="nonzero"/><path fill="#ffffff" d="M 93.71875 71.625 C 93.695312 71.65625 93.667969 71.6875 93.640625 71.71875 C 93.667969 71.6875 93.695312 71.65625 93.71875 71.625 M 120.890625 49.410156 C 115.804688 51.910156 110.695312 54.4375 105.980469 57.597656 C 103.53125 59.238281 101.15625 61.007812 98.867188 62.871094 C 96.6875 64.644531 94.597656 66.539062 92.667969 68.582031 C 91.652344 69.660156 90.671875 70.773438 89.78125 71.957031 C 88.945312 73.0625 88.1875 74.226562 87.511719 75.433594 C 86.097656 77.949219 85.03125 80.636719 84.378906 83.445312 C 84.105469 84.636719 83.90625 85.839844 83.78125 87.054688 C 83.78125 87.058594 83.789062 87.0625 83.789062 87.054688 C 84.285156 85.800781 84.839844 84.566406 85.449219 83.363281 C 85.429688 83.402344 85.410156 83.441406 85.390625 83.480469 C 86.484375 81.3125 87.761719 79.242188 89.175781 77.265625 C 90.523438 75.382812 91.996094 73.589844 93.519531 71.855469 C 97.269531 67.640625 101.695312 64.085938 106.28125 60.832031 C 110.914062 57.542969 115.484375 54.140625 119.773438 50.410156 C 120.148438 50.082031 120.523438 49.75 120.894531 49.417969 C 120.898438 49.414062 120.898438 49.414062 120.894531 49.410156 C 120.894531 49.410156 120.890625 49.410156 120.890625 49.410156 " fill-opacity="1" fill-rule="nonzero"/><path fill="#ffffff" d="M 110.445312 64.378906 C 110.460938 64.347656 110.472656 64.320312 110.488281 64.292969 Z M 91.75 84.460938 C 91.75 84.460938 91.753906 84.460938 91.753906 84.460938 C 91.753906 84.460938 91.753906 84.460938 91.753906 84.457031 C 91.753906 84.460938 91.75 84.460938 91.75 84.460938 M 98.039062 78.71875 C 98 78.761719 97.960938 78.804688 97.925781 78.847656 C 97.960938 78.804688 98 78.761719 98.039062 78.71875 M 113.570312 58.039062 C 113.558594 58.070312 113.539062 58.101562 113.523438 58.132812 C 113.539062 58.101562 113.554688 58.070312 113.570312 58.039062 M 117.058594 52.074219 C 116.050781 52.800781 115.167969 53.671875 114.335938 54.59375 C 113.691406 55.3125 113.070312 56.050781 112.476562 56.804688 C 111.277344 58.324219 110.175781 59.917969 109.125 61.542969 C 106.917969 64.953125 105.046875 68.566406 102.894531 72.007812 C 101.382812 74.425781 99.742188 76.777344 97.855469 78.921875 C 96.023438 80.972656 94.03125 82.90625 91.753906 84.457031 C 91.78125 84.441406 91.808594 84.425781 91.832031 84.40625 C 91.804688 84.425781 91.78125 84.441406 91.753906 84.460938 C 91.703125 84.496094 91.65625 84.527344 91.605469 84.558594 C 91.65625 84.527344 91.703125 84.496094 91.75 84.460938 C 90.207031 85.484375 88.546875 86.332031 86.800781 86.949219 C 85.511719 87.390625 84.183594 87.71875 82.835938 87.9375 C 82.832031 87.941406 82.832031 87.945312 82.835938 87.949219 C 84.839844 88.175781 86.875 88.09375 88.847656 87.667969 C 90.730469 87.261719 92.554688 86.539062 94.21875 85.570312 C 95.925781 84.582031 97.5 83.359375 98.890625 81.964844 C 100.339844 80.507812 101.636719 78.886719 102.835938 77.222656 C 104.019531 75.585938 105.109375 73.882812 106.152344 72.148438 C 107.207031 70.398438 108.230469 68.625 109.191406 66.824219 C 109.621094 66.015625 110.035156 65.195312 110.445312 64.378906 C 110.410156 64.453125 110.371094 64.527344 110.335938 64.601562 C 111.40625 62.472656 112.429688 60.320312 113.496094 58.191406 C 113.476562 58.230469 113.457031 58.269531 113.433594 58.3125 C 113.453125 58.277344 113.46875 58.242188 113.484375 58.210938 C 113.941406 57.304688 114.410156 56.40625 114.894531 55.511719 C 115.542969 54.320312 116.222656 53.140625 117.066406 52.078125 C 117.070312 52.074219 117.066406 52.074219 117.0625 52.070312 C 117.0625 52.070312 117.0625 52.070312 117.058594 52.074219 " fill-opacity="1" fill-rule="nonzero"/><path fill="#ffffff" d="M 66.195312 66.367188 C 66.199219 66.449219 66.207031 66.535156 66.210938 66.617188 C 66.207031 66.535156 66.199219 66.449219 66.195312 66.367188 M 66.246094 52.285156 C 65.199219 56.507812 63.945312 60.703125 63.617188 65.058594 C 63.449219 67.300781 63.5625 69.578125 64.074219 71.769531 C 64.550781 73.804688 65.34375 75.753906 66.453125 77.527344 C 68.746094 81.199219 71.863281 84.328125 75.386719 86.832031 C 76.582031 87.683594 77.835938 88.445312 79.152344 89.097656 C 80.246094 89.644531 81.394531 90.101562 82.589844 90.367188 C 82.59375 90.367188 82.601562 90.359375 82.59375 90.359375 C 81.199219 89.609375 79.941406 88.605469 78.757812 87.558594 C 78.792969 87.59375 78.832031 87.625 78.871094 87.660156 C 77.28125 86.253906 75.8125 84.722656 74.40625 83.140625 C 72.988281 81.550781 71.644531 79.902344 70.371094 78.203125 C 70.019531 77.734375 69.675781 77.261719 69.347656 76.78125 C 68.523438 75.535156 67.835938 74.222656 67.328125 72.816406 C 66.667969 70.824219 66.367188 68.726562 66.214844 66.640625 C 65.9375 62.320312 66.308594 57.996094 66.277344 53.675781 C 66.277344 53.214844 66.269531 52.75 66.253906 52.289062 C 66.253906 52.285156 66.25 52.285156 66.25 52.285156 C 66.25 52.285156 66.246094 52.285156 66.246094 52.285156 " fill-opacity="1" fill-rule="nonzero"/><path fill="#ffffff" d="M 68.988281 59.96875 C 69.003906 59.980469 69.019531 59.996094 69.035156 60.007812 C 69.011719 59.988281 68.992188 59.972656 68.96875 59.953125 Z M 66.679688 57.476562 C 66.6875 57.492188 66.699219 57.507812 66.707031 57.523438 C 66.699219 57.507812 66.6875 57.492188 66.679688 57.476562 M 65.933594 55.667969 C 65.71875 57.117188 66.472656 58.582031 67.230469 59.769531 C 68.230469 61.335938 69.46875 62.730469 70.71875 64.09375 C 71.273438 64.699219 71.832031 65.300781 72.375 65.914062 C 72.796875 66.386719 73.207031 66.867188 73.566406 67.386719 C 74.152344 68.277344 74.683594 69.210938 75.199219 70.144531 C 75.78125 71.1875 76.328125 72.253906 76.816406 73.34375 C 77.796875 75.523438 78.675781 77.75 79.460938 80.007812 C 79.425781 79.910156 79.394531 79.816406 79.359375 79.722656 C 79.949219 81.425781 80.488281 83.152344 80.984375 84.886719 C 81.515625 86.753906 81.996094 88.640625 82.332031 90.558594 C 82.332031 90.5625 82.339844 90.5625 82.339844 90.558594 C 82.613281 87.90625 82.488281 85.226562 82.179688 82.582031 C 81.882812 80.109375 81.375 77.648438 80.597656 75.277344 C 79.789062 72.824219 78.726562 70.4375 77.367188 68.230469 C 76.992188 67.625 76.589844 67.03125 76.171875 66.449219 C 75.921875 66.097656 75.664062 65.753906 75.378906 65.429688 C 74.820312 64.804688 74.183594 64.253906 73.550781 63.707031 C 72.074219 62.441406 70.5 61.292969 69.035156 60.007812 C 69.046875 60.019531 69.058594 60.027344 69.066406 60.039062 C 69.042969 60.015625 69.011719 59.992188 68.988281 59.96875 C 68.96875 59.953125 68.953125 59.9375 68.9375 59.921875 C 68.949219 59.933594 68.960938 59.941406 68.96875 59.953125 C 68.128906 59.203125 67.304688 58.402344 66.671875 57.464844 C 66.445312 57.117188 66.246094 56.753906 66.105469 56.363281 C 66.105469 56.363281 66.109375 56.367188 66.109375 56.371094 C 66.03125 56.144531 65.972656 55.90625 65.941406 55.667969 C 65.941406 55.664062 65.9375 55.664062 65.9375 55.664062 C 65.9375 55.664062 65.933594 55.664062 65.933594 55.667969 " fill-opacity="1" fill-rule="nonzero"/><path fill="#ffffff" d="M 48.480469 93.722656 C 48.492188 93.746094 48.507812 93.773438 48.523438 93.796875 C 48.507812 93.773438 48.492188 93.746094 48.480469 93.722656 M 44.710938 84.761719 C 44.535156 88.714844 45.488281 92.664062 47.269531 96.191406 C 48.214844 98.0625 49.378906 99.839844 50.722656 101.449219 C 52.074219 103.085938 53.609375 104.578125 55.199219 105.984375 C 56.726562 107.34375 58.339844 108.59375 60.070312 109.683594 C 61.84375 110.808594 63.714844 111.785156 65.636719 112.621094 C 68.296875 113.777344 71.085938 114.648438 73.9375 115.210938 C 73.941406 115.214844 73.941406 115.207031 73.9375 115.203125 C 73.46875 114.964844 73.003906 114.722656 72.539062 114.476562 L 72.585938 114.5 C 69.136719 112.660156 65.832031 110.546875 62.667969 108.25 C 60.425781 106.621094 58.203125 104.921875 56.164062 103.039062 C 54.742188 101.699219 53.425781 100.265625 52.175781 98.769531 C 50.910156 97.257812 49.722656 95.679688 48.667969 94.019531 C 48.640625 93.976562 48.613281 93.9375 48.589844 93.898438 C 47.136719 91.546875 45.941406 89.035156 45.148438 86.382812 C 44.992188 85.847656 44.847656 85.304688 44.71875 84.761719 C 44.71875 84.757812 44.71875 84.757812 44.71875 84.757812 C 44.714844 84.753906 44.710938 84.757812 44.710938 84.761719 " fill-opacity="1" fill-rule="nonzero"/><path fill="#ffffff" d="M 68.652344 106.378906 C 68.675781 106.410156 68.695312 106.441406 68.714844 106.472656 C 68.695312 106.441406 68.675781 106.410156 68.652344 106.378906 M 55.179688 92.484375 C 55.144531 92.464844 55.113281 92.445312 55.078125 92.429688 C 55.113281 92.445312 55.144531 92.464844 55.179688 92.484375 M 55.347656 92.570312 C 55.304688 92.550781 55.265625 92.527344 55.222656 92.507812 C 55.265625 92.527344 55.304688 92.550781 55.347656 92.570312 M 55.433594 90.074219 C 54.179688 89.648438 52.890625 89.367188 51.585938 89.160156 C 50.359375 88.964844 49.121094 88.808594 47.910156 88.519531 C 47.914062 88.523438 47.917969 88.523438 47.921875 88.523438 C 47.136719 88.328125 46.359375 88.078125 45.640625 87.695312 C 45.410156 87.570312 45.1875 87.429688 44.972656 87.277344 C 44.96875 87.273438 44.964844 87.277344 44.964844 87.28125 C 46.15625 88.777344 48.015625 89.582031 49.757812 90.242188 C 50.648438 90.582031 51.550781 90.882812 52.441406 91.226562 C 53.382812 91.589844 54.304688 92.023438 55.195312 92.496094 C 57.332031 93.648438 59.316406 95.078125 61.105469 96.71875 C 62.652344 98.183594 64 99.835938 65.292969 101.527344 C 66.535156 103.152344 67.695312 104.839844 68.777344 106.578125 C 70.386719 109.1875 71.835938 111.890625 73.265625 114.597656 C 73.265625 114.601562 73.273438 114.601562 73.273438 114.597656 C 72.742188 112.109375 72.082031 109.648438 71.210938 107.257812 C 70.324219 104.832031 69.1875 102.519531 67.800781 100.34375 C 66.320312 98.011719 64.492188 95.933594 62.429688 94.097656 C 61.308594 93.101562 60.066406 92.238281 58.742188 91.515625 C 57.683594 90.941406 56.574219 90.457031 55.433594 90.074219 " fill-opacity="1" fill-rule="nonzero"/><g clip-path="url(#db8abb7a40)"><path fill="#ffffff" d="M 92.964844 102.847656 C 92.933594 102.859375 92.90625 102.871094 92.875 102.878906 C 92.90625 102.871094 92.933594 102.859375 92.964844 102.847656 M 121.703125 94.492188 C 117.648438 94.976562 113.582031 95.335938 109.539062 95.890625 C 107.496094 96.167969 105.449219 96.5 103.429688 96.945312 C 101.425781 97.386719 99.425781 97.871094 97.449219 98.425781 C 95.398438 98.996094 93.375 99.660156 91.386719 100.417969 C 89.519531 101.128906 87.691406 101.9375 85.96875 102.945312 C 82.367188 105.054688 79.226562 107.90625 76.894531 111.378906 C 76.28125 112.296875 75.726562 113.257812 75.234375 114.246094 C 75.230469 114.253906 75.234375 114.257812 75.238281 114.253906 C 77.089844 112.21875 79.160156 110.40625 81.398438 108.8125 C 82.996094 107.699219 84.671875 106.707031 86.398438 105.808594 C 88.164062 104.890625 89.972656 104.039062 91.816406 103.292969 C 92.21875 103.132812 92.625 102.976562 93.027344 102.824219 C 96.820312 101.433594 100.738281 100.476562 104.671875 99.589844 C 108.679688 98.6875 112.675781 97.664062 116.585938 96.378906 C 118.3125 95.8125 120.023438 95.195312 121.703125 94.5 C 121.707031 94.5 121.707031 94.496094 121.703125 94.492188 " fill-opacity="1" fill-rule="nonzero"/></g><path fill="#ffffff" d="M 75.78125 116.894531 C 75.785156 116.894531 75.789062 116.898438 75.792969 116.902344 C 75.789062 116.898438 75.785156 116.894531 75.78125 116.894531 M 79.890625 117.972656 C 79.851562 117.976562 79.8125 117.980469 79.777344 117.984375 C 79.8125 117.980469 79.851562 117.976562 79.890625 117.972656 M 79.972656 117.964844 C 79.949219 117.96875 79.925781 117.96875 79.898438 117.972656 C 79.925781 117.96875 79.949219 117.96875 79.972656 117.964844 M 84.132812 116.886719 C 84.085938 116.90625 84.03125 116.925781 83.980469 116.945312 C 84.03125 116.925781 84.082031 116.90625 84.132812 116.886719 M 117.070312 95.195312 C 114.902344 95.9375 112.882812 97.046875 110.988281 98.332031 C 108.953125 99.714844 107.054688 101.285156 105.214844 102.914062 C 102.53125 105.292969 100.007812 107.863281 97.078125 109.953125 C 94.894531 111.472656 92.574219 112.804688 90.21875 114.035156 C 88.175781 115.105469 86.105469 116.144531 83.945312 116.957031 C 82.636719 117.433594 81.28125 117.832031 79.894531 117.972656 C 79.253906 118.023438 78.609375 118.015625 77.976562 117.910156 C 77.5625 117.828125 77.160156 117.707031 76.777344 117.53125 C 76.429688 117.363281 76.101562 117.15625 75.804688 116.914062 C 75.460938 116.617188 75.160156 116.28125 74.898438 115.914062 C 74.890625 115.902344 74.882812 115.890625 74.875 115.878906 C 74.875 115.875 74.867188 115.878906 74.871094 115.882812 C 75.289062 117.09375 76.128906 118.089844 77.269531 118.683594 C 78.535156 119.339844 79.996094 119.527344 81.402344 119.492188 C 83.070312 119.445312 84.726562 119.117188 86.320312 118.640625 C 88.039062 118.128906 89.714844 117.453125 91.320312 116.667969 C 92.703125 115.988281 94.042969 115.222656 95.359375 114.429688 C 96.347656 113.835938 97.320312 113.222656 98.269531 112.570312 C 100.300781 111.179688 102.171875 109.582031 103.976562 107.90625 C 105.753906 106.253906 107.390625 104.453125 109.035156 102.675781 C 111.460938 100.058594 113.925781 97.421875 116.855469 95.355469 L 116.847656 95.363281 C 116.921875 95.308594 116.996094 95.257812 117.074219 95.207031 C 117.078125 95.203125 117.078125 95.199219 117.074219 95.199219 C 117.074219 95.195312 117.074219 95.195312 117.070312 95.195312 " fill-opacity="1" fill-rule="nonzero"/><path fill="#ffffff" d="M 36.582031 112.523438 C 37.148438 116.777344 37.933594 121.054688 39.746094 124.980469 C 41.640625 129.078125 44.800781 132.46875 48.511719 135 C 51.179688 136.820312 54.046875 138.304688 56.914062 139.796875 C 58.59375 140.671875 60.28125 141.546875 61.925781 142.484375 C 61.929688 142.492188 61.933594 142.484375 61.929688 142.480469 C 58.242188 138.71875 53.863281 135.75 49.742188 132.5 C 48.519531 131.527344 47.332031 130.511719 46.242188 129.394531 C 45.253906 128.386719 44.355469 127.289062 43.515625 126.160156 C 41.183594 122.917969 39.5 119.296875 37.925781 115.644531 C 37.476562 114.601562 37.039062 113.5625 36.589844 112.519531 C 36.585938 112.515625 36.582031 112.519531 36.582031 112.523438 " fill-opacity="1" fill-rule="nonzero"/><path fill="#ffffff" d="M 52.722656 124.527344 C 52.757812 124.558594 52.796875 124.585938 52.835938 124.617188 C 52.796875 124.585938 52.757812 124.558594 52.722656 124.527344 M 51.039062 120.183594 C 49.738281 119.554688 48.382812 119.039062 47.003906 118.613281 C 43.707031 117.59375 40.285156 117.058594 36.921875 116.308594 C 36.917969 116.308594 36.914062 116.3125 36.917969 116.316406 C 41.726562 118.902344 47.015625 120.546875 51.535156 123.667969 C 52 123.984375 52.453125 124.324219 52.894531 124.667969 C 54.191406 125.71875 55.390625 126.917969 56.394531 128.246094 C 57.195312 129.363281 57.847656 130.566406 58.355469 131.839844 C 59.492188 134.851562 59.882812 138.078125 60.59375 141.199219 C 60.597656 141.203125 60.601562 141.203125 60.601562 141.199219 C 60.714844 139.085938 60.878906 136.960938 60.808594 134.839844 C 60.769531 133.777344 60.667969 132.714844 60.472656 131.667969 C 60.265625 130.578125 59.929688 129.53125 59.5 128.511719 C 58.496094 126.144531 56.769531 124.136719 54.773438 122.546875 C 53.847656 121.808594 52.875 121.160156 51.84375 120.597656 C 51.582031 120.453125 51.308594 120.3125 51.039062 120.183594 " fill-opacity="1" fill-rule="nonzero"/><path fill="#ffffff" d="M 23.824219 131.773438 C 24.457031 136.445312 24.769531 141.199219 26.101562 145.742188 C 26.789062 148.097656 27.769531 150.355469 29.078125 152.425781 C 30.492188 154.664062 32.246094 156.648438 34.226562 158.402344 C 37.777344 161.550781 41.855469 164 45.652344 166.824219 C 45.65625 166.828125 45.660156 166.820312 45.65625 166.816406 C 42.460938 162.683594 38.515625 159.222656 35.011719 155.363281 C 34.078125 154.339844 33.167969 153.289062 32.339844 152.175781 C 30.65625 149.828125 29.464844 147.171875 28.429688 144.484375 C 26.828125 140.273438 25.625 135.910156 23.832031 131.769531 C 23.832031 131.769531 23.832031 131.765625 23.832031 131.765625 C 23.828125 131.765625 23.824219 131.769531 23.824219 131.773438 " fill-opacity="1" fill-rule="nonzero"/><path fill="#ffffff" d="M 41.566406 154.277344 C 41.5625 154.265625 41.558594 154.253906 41.550781 154.242188 C 41.550781 154.238281 41.546875 154.230469 41.546875 154.226562 C 41.550781 154.242188 41.558594 154.257812 41.566406 154.277344 M 27.097656 135.660156 C 26.089844 135.472656 25.074219 135.371094 24.050781 135.34375 C 24.046875 135.34375 24.046875 135.351562 24.050781 135.351562 C 24.949219 135.628906 25.832031 135.957031 26.695312 136.332031 C 28.4375 137.101562 30.070312 138.089844 31.570312 139.257812 C 33.398438 140.726562 34.984375 142.460938 36.382812 144.339844 C 37.472656 145.84375 38.453125 147.417969 39.292969 149.070312 C 40.140625 150.742188 40.867188 152.480469 41.546875 154.226562 C 41.535156 154.195312 41.523438 154.164062 41.511719 154.132812 C 41.523438 154.167969 41.539062 154.207031 41.550781 154.242188 C 41.582031 154.316406 41.609375 154.386719 41.636719 154.460938 C 41.613281 154.402344 41.589844 154.335938 41.566406 154.277344 C 43.101562 158.296875 44.308594 162.445312 45.277344 166.636719 C 45.339844 166.914062 45.402344 167.195312 45.464844 167.472656 C 45.46875 167.476562 45.472656 167.472656 45.472656 167.46875 C 45.71875 163.125 45.390625 158.71875 44.332031 154.492188 C 43.769531 152.25 42.96875 150.074219 41.945312 148 C 40.945312 145.96875 39.75 144.027344 38.289062 142.292969 C 36.695312 140.394531 34.75 138.796875 32.582031 137.617188 C 30.875 136.6875 29.027344 136.015625 27.097656 135.660156 " fill-opacity="1" fill-rule="nonzero"/><path fill="#ffffff" d="M 22.777344 191.652344 C 22.773438 191.648438 22.769531 191.648438 22.765625 191.644531 C 22.769531 191.648438 22.773438 191.648438 22.777344 191.652344 M 21.492188 190.296875 C 21.507812 190.3125 21.519531 190.332031 21.53125 190.351562 C 21.519531 190.332031 21.507812 190.316406 21.492188 190.296875 M 12.886719 143.285156 C 12.605469 148.847656 12.417969 154.4375 12.75 160 C 12.832031 161.398438 12.964844 162.789062 13.089844 164.183594 C 13.15625 164.878906 13.222656 165.578125 13.292969 166.273438 C 13.300781 166.351562 13.308594 166.433594 13.316406 166.507812 C 13.320312 166.71875 13.359375 166.933594 13.382812 167.144531 C 13.398438 167.3125 13.414062 167.476562 13.433594 167.644531 C 13.46875 168.007812 13.511719 168.367188 13.550781 168.730469 C 13.625 169.425781 13.707031 170.121094 13.789062 170.816406 C 13.960938 172.207031 14.148438 173.597656 14.351562 174.980469 C 14.625 176.828125 14.917969 178.671875 15.371094 180.484375 C 15.867188 182.464844 16.527344 184.421875 17.410156 186.269531 C 18.15625 187.835938 19.109375 189.359375 20.363281 190.574219 C 21.449219 191.632812 22.820312 192.433594 24.359375 192.539062 C 24.367188 192.539062 24.367188 192.53125 24.359375 192.53125 C 24.238281 192.484375 24.121094 192.441406 24 192.390625 C 23.5625 192.195312 23.15625 191.945312 22.777344 191.652344 C 22.777344 191.652344 22.78125 191.65625 22.785156 191.65625 C 22.78125 191.65625 22.78125 191.652344 22.777344 191.652344 C 22.761719 191.640625 22.746094 191.628906 22.734375 191.617188 C 22.746094 191.625 22.757812 191.636719 22.765625 191.644531 C 22.285156 191.25 21.863281 190.792969 21.492188 190.292969 C 20.824219 189.367188 20.324219 188.335938 19.910156 187.273438 C 19.222656 185.453125 18.765625 183.554688 18.382812 181.652344 C 18.039062 179.957031 17.761719 178.257812 17.480469 176.554688 C 16.933594 173.238281 16.511719 169.902344 16.167969 166.5625 C 16.164062 166.535156 16.160156 166.507812 16.160156 166.484375 C 16.15625 166.394531 16.148438 166.304688 16.132812 166.214844 C 15.855469 163.414062 15.648438 160.601562 15.332031 157.800781 C 15.019531 155.042969 14.628906 152.292969 14.152344 149.554688 C 13.789062 147.457031 13.371094 145.363281 12.894531 143.285156 C 12.894531 143.28125 12.894531 143.28125 12.894531 143.28125 C 12.890625 143.277344 12.886719 143.28125 12.886719 143.285156 " fill-opacity="1" fill-rule="nonzero"/><path fill="#ffffff" d="M 26.636719 181.429688 C 26.632812 181.460938 26.628906 181.492188 26.621094 181.527344 C 26.628906 181.492188 26.632812 181.460938 26.636719 181.429688 M 25.808594 170.332031 C 25.824219 170.371094 25.835938 170.40625 25.855469 170.441406 C 25.835938 170.40625 25.824219 170.371094 25.808594 170.332031 M 25.714844 170.085938 C 25.726562 170.121094 25.742188 170.152344 25.753906 170.183594 C 25.742188 170.152344 25.726562 170.121094 25.714844 170.085938 M 15.808594 152.074219 C 15.828125 152.101562 15.847656 152.128906 15.867188 152.15625 C 15.847656 152.128906 15.828125 152.101562 15.808594 152.074219 M 13.816406 149.007812 C 14.714844 152.785156 16.710938 156.152344 18.894531 159.316406 C 19.976562 160.882812 21.109375 162.414062 22.199219 163.964844 C 23.289062 165.519531 24.324219 167.101562 25.152344 168.8125 C 25.378906 169.289062 25.585938 169.769531 25.777344 170.253906 C 26.339844 171.757812 26.71875 173.324219 26.890625 174.921875 C 27.09375 177.167969 26.949219 179.421875 26.601562 181.652344 C 25.96875 185.476562 24.882812 189.210938 24.339844 193.054688 C 24.339844 193.058594 24.347656 193.0625 24.347656 193.058594 C 25.359375 190.757812 26.484375 188.507812 27.464844 186.195312 C 27.957031 185.019531 28.414062 183.828125 28.792969 182.609375 C 29.1875 181.335938 29.472656 180.039062 29.660156 178.71875 C 29.96875 176.472656 29.789062 174.152344 29.273438 171.945312 C 28.808594 169.972656 28.023438 168.0625 27.054688 166.285156 C 26.097656 164.53125 24.949219 162.871094 23.703125 161.308594 C 22.511719 159.816406 21.222656 158.40625 19.941406 156.988281 C 18.507812 155.398438 17.078125 153.796875 15.804688 152.070312 C 15.085938 151.085938 14.417969 150.066406 13.824219 149.007812 C 13.824219 149.003906 13.824219 149.003906 13.824219 149.003906 C 13.820312 149.003906 13.816406 149.003906 13.816406 149.007812 " fill-opacity="1" fill-rule="nonzero"/><path fill="#ffffff" d="M -4.359375 168.5 C -3.65625 172.507812 -2.511719 176.421875 -1.265625 180.289062 C -0.664062 182.148438 -0.0507812 184 0.566406 185.855469 C 1.164062 187.632812 1.695312 189.4375 2.101562 191.273438 C 2.359375 192.453125 2.5625 193.644531 2.695312 194.84375 C 2.929688 197.308594 2.941406 199.796875 2.570312 202.25 C 2.207031 204.476562 1.542969 206.636719 0.644531 208.699219 C 0.660156 208.660156 0.675781 208.625 0.695312 208.585938 C 0.175781 209.765625 -0.410156 210.910156 -1.054688 212.03125 C -1.054688 212.035156 -1.046875 212.039062 -1.042969 212.035156 C 1.890625 209.15625 4.15625 205.574219 5.09375 201.542969 C 5.527344 199.691406 5.707031 197.777344 5.617188 195.878906 C 5.527344 193.964844 5.210938 192.054688 4.78125 190.1875 C 3.890625 186.335938 2.496094 182.625 0.835938 179.039062 C -0.804688 175.484375 -2.652344 172.027344 -4.347656 168.496094 C -4.351562 168.496094 -4.351562 168.496094 -4.351562 168.496094 C -4.355469 168.496094 -4.359375 168.496094 -4.359375 168.5 " fill-opacity="1" fill-rule="nonzero"/><path fill="#ffffff" d="M 79.253906 132.574219 C 79.285156 132.566406 79.316406 132.558594 79.34375 132.554688 C 79.304688 132.5625 79.269531 132.570312 79.234375 132.578125 C 79.238281 132.578125 79.246094 132.578125 79.253906 132.574219 M 104.585938 127.402344 C 101.058594 127.722656 97.503906 127.738281 93.964844 127.878906 C 92.058594 127.953125 90.15625 128.054688 88.257812 128.238281 C 86.351562 128.417969 84.449219 128.699219 82.558594 129.023438 C 80.605469 129.359375 78.660156 129.769531 76.742188 130.289062 C 74.984375 130.761719 73.273438 131.375 71.636719 132.1875 C 69.984375 133.007812 68.414062 133.984375 67.011719 135.1875 C 65.632812 136.367188 64.425781 137.722656 63.453125 139.25 C 62.851562 140.195312 62.34375 141.191406 61.933594 142.234375 C 61.933594 142.242188 61.9375 142.246094 61.941406 142.242188 C 62.679688 141.265625 63.5 140.355469 64.390625 139.519531 C 65.839844 138.179688 67.476562 137.0625 69.210938 136.125 C 70.742188 135.332031 72.335938 134.679688 73.964844 134.117188 C 75.679688 133.527344 77.429688 133.011719 79.191406 132.589844 C 81.019531 132.167969 82.863281 131.839844 84.714844 131.558594 C 86.613281 131.273438 88.519531 131.035156 90.417969 130.746094 C 94.097656 130.171875 97.78125 129.511719 101.363281 128.484375 C 102.453125 128.167969 103.53125 127.816406 104.589844 127.414062 C 104.59375 127.410156 104.59375 127.40625 104.589844 127.402344 C 104.589844 127.402344 104.585938 127.402344 104.585938 127.402344 " fill-opacity="1" fill-rule="nonzero"/><path fill="#ffffff" d="M 101.667969 128.355469 C 101.675781 128.351562 101.675781 128.347656 101.679688 128.347656 C 101.675781 128.347656 101.671875 128.351562 101.667969 128.355469 M 90.671875 135.90625 C 90.582031 135.953125 90.488281 136.003906 90.398438 136.054688 C 90.488281 136.003906 90.582031 135.953125 90.671875 135.90625 M 102.023438 128.015625 C 99.84375 129.097656 98.066406 130.761719 96.191406 132.28125 C 94.480469 133.664062 92.609375 134.839844 90.679688 135.898438 C 89.019531 136.796875 87.308594 137.613281 85.558594 138.308594 C 83.8125 139 82.019531 139.558594 80.199219 140.007812 C 75.410156 141.152344 70.53125 141.886719 65.609375 142.070312 C 64.1875 142.125 62.761719 142.136719 61.335938 142.128906 C 61.332031 142.128906 61.328125 142.136719 61.335938 142.136719 C 63.734375 142.824219 66.183594 143.347656 68.664062 143.609375 C 71.230469 143.878906 73.835938 143.871094 76.394531 143.578125 C 78.902344 143.289062 81.382812 142.703125 83.789062 141.953125 C 86.125 141.230469 88.386719 140.292969 90.515625 139.089844 C 92.667969 137.871094 94.671875 136.328125 96.394531 134.554688 C 98.238281 132.660156 99.628906 130.371094 101.511719 128.503906 C 101.570312 128.453125 101.625 128.394531 101.683594 128.34375 L 101.679688 128.347656 C 101.792969 128.238281 101.910156 128.128906 102.027344 128.023438 C 102.03125 128.019531 102.03125 128.015625 102.023438 128.015625 " fill-opacity="1" fill-rule="nonzero"/><path fill="#ffffff" d="M 64.414062 162.589844 C 64.351562 162.589844 64.289062 162.585938 64.230469 162.585938 C 64.3125 162.589844 64.394531 162.589844 64.480469 162.589844 C 64.457031 162.589844 64.4375 162.589844 64.414062 162.589844 M 47.816406 166.390625 L 47.828125 166.378906 Z M 54.003906 163.214844 C 53.941406 163.230469 53.878906 163.246094 53.816406 163.261719 C 53.878906 163.246094 53.9375 163.230469 54.003906 163.214844 M 96.390625 161.6875 C 96.0625 161.6875 95.738281 161.679688 95.414062 161.675781 C 95.414062 161.675781 95.417969 161.675781 95.417969 161.675781 C 90.1875 161.585938 84.988281 160.992188 79.777344 160.59375 C 77.148438 160.394531 74.515625 160.242188 71.886719 160.078125 C 69.144531 159.910156 66.40625 159.785156 63.65625 159.75 C 61.355469 159.722656 59.0625 159.832031 56.808594 160.324219 C 54.585938 160.8125 52.429688 161.605469 50.566406 162.929688 C 48.972656 164.066406 47.675781 165.59375 46.878906 167.386719 C 46.878906 167.390625 46.882812 167.390625 46.886719 167.390625 C 47.1875 167.027344 47.511719 166.683594 47.855469 166.355469 C 47.847656 166.363281 47.835938 166.371094 47.828125 166.378906 C 48.5625 165.6875 49.386719 165.09375 50.269531 164.601562 C 51.382812 164.003906 52.570312 163.578125 53.789062 163.269531 C 57.195312 162.460938 60.746094 162.527344 64.230469 162.585938 L 64.167969 162.585938 C 64.25 162.585938 64.332031 162.589844 64.414062 162.589844 C 64.457031 162.589844 64.492188 162.589844 64.53125 162.589844 L 64.480469 162.589844 C 67.023438 162.644531 69.566406 162.78125 72.101562 162.9375 C 74.734375 163.101562 77.363281 163.332031 79.996094 163.410156 C 85.351562 163.566406 90.734375 163.175781 95.933594 161.820312 C 96.085938 161.78125 96.238281 161.738281 96.390625 161.695312 C 96.394531 161.695312 96.394531 161.691406 96.390625 161.6875 " fill-opacity="1" fill-rule="nonzero"/><path fill="#ffffff" d="M 48.996094 168.996094 C 49.015625 169.003906 49.042969 169.007812 49.0625 169.015625 C 49.070312 169.019531 49.082031 169.019531 49.089844 169.023438 C 49.058594 169.015625 49.027344 169.003906 48.996094 168.996094 M 92.589844 162.296875 C 91.40625 162.410156 90.277344 162.804688 89.195312 163.273438 C 88.089844 163.746094 87.023438 164.304688 85.933594 164.808594 C 83.578125 165.894531 81.199219 166.917969 78.769531 167.832031 C 76.703125 168.609375 74.613281 169.335938 72.472656 169.867188 C 69.398438 170.59375 66.234375 170.890625 63.082031 170.851562 C 58.378906 170.757812 53.632812 170.289062 49.089844 169.023438 C 49.101562 169.027344 49.117188 169.03125 49.128906 169.035156 C 47.769531 168.648438 46.429688 168.191406 45.125 167.644531 C 45.121094 167.640625 45.117188 167.648438 45.121094 167.652344 C 48.851562 170.628906 53.46875 172.414062 58.144531 173.230469 C 60.617188 173.667969 63.132812 173.753906 65.640625 173.65625 C 67.933594 173.566406 70.226562 173.285156 72.46875 172.777344 C 75.097656 172.183594 77.664062 171.359375 80.101562 170.203125 C 82.519531 169.058594 84.816406 167.65625 86.976562 166.089844 C 88.496094 164.988281 89.890625 163.703125 91.535156 162.796875 C 91.523438 162.800781 91.511719 162.808594 91.5 162.816406 C 91.851562 162.625 92.214844 162.453125 92.589844 162.308594 C 92.59375 162.304688 92.59375 162.300781 92.589844 162.296875 " fill-opacity="1" fill-rule="nonzero"/><path fill="#ffffff" d="M 25.667969 192.574219 C 25.667969 192.578125 25.667969 192.578125 25.667969 192.578125 C 25.667969 192.578125 25.667969 192.578125 25.667969 192.574219 M 25.734375 191.828125 C 25.734375 191.828125 25.734375 191.832031 25.734375 191.832031 C 25.734375 191.828125 25.734375 191.828125 25.734375 191.828125 M 25.929688 191.464844 C 25.921875 191.472656 25.917969 191.480469 25.914062 191.488281 C 25.917969 191.480469 25.921875 191.472656 25.929688 191.464844 M 25.945312 191.445312 C 25.941406 191.449219 25.9375 191.457031 25.933594 191.460938 C 25.9375 191.453125 25.941406 191.449219 25.945312 191.445312 M 26.359375 191.027344 C 26.347656 191.039062 26.332031 191.050781 26.320312 191.058594 C 26.332031 191.046875 26.347656 191.039062 26.359375 191.027344 M 27.375 190.449219 C 27.347656 190.460938 27.320312 190.472656 27.289062 190.484375 C 27.320312 190.472656 27.347656 190.460938 27.375 190.449219 M 81.179688 186.539062 C 80.628906 186.6875 80.074219 186.796875 79.511719 186.886719 C 79.53125 186.882812 79.550781 186.878906 79.570312 186.875 C 77.171875 187.242188 74.722656 187.15625 72.3125 186.984375 C 69.828125 186.804688 67.359375 186.503906 64.875 186.316406 C 63.609375 186.21875 62.335938 186.1875 61.066406 186.140625 C 59.523438 186.082031 57.976562 186.015625 56.4375 185.949219 C 53.347656 185.816406 50.261719 185.691406 47.171875 185.65625 C 45.628906 185.640625 44.082031 185.648438 42.539062 185.695312 C 41.429688 185.722656 40.316406 185.769531 39.207031 185.886719 C 37.96875 186.015625 36.738281 186.226562 35.515625 186.476562 C 33.902344 186.804688 32.296875 187.226562 30.746094 187.789062 C 29.292969 188.3125 27.820312 188.949219 26.621094 189.941406 C 26.164062 190.320312 25.753906 190.785156 25.550781 191.351562 C 25.378906 191.832031 25.449219 192.347656 25.699219 192.789062 C 25.703125 192.792969 25.710938 192.789062 25.707031 192.785156 C 25.691406 192.714844 25.679688 192.652344 25.667969 192.582031 C 25.667969 192.582031 25.667969 192.585938 25.667969 192.585938 C 25.648438 192.445312 25.644531 192.304688 25.65625 192.167969 C 25.65625 192.171875 25.65625 192.183594 25.652344 192.1875 C 25.667969 192.066406 25.691406 191.949219 25.734375 191.832031 C 25.785156 191.703125 25.851562 191.578125 25.929688 191.464844 C 26.054688 191.300781 26.203125 191.15625 26.363281 191.027344 C 26.671875 190.789062 27.023438 190.605469 27.378906 190.445312 C 28.753906 189.867188 30.265625 189.605469 31.734375 189.375 C 31.65625 189.386719 31.578125 189.398438 31.5 189.410156 C 33.105469 189.164062 34.722656 189.003906 36.335938 188.871094 C 37.378906 188.78125 38.425781 188.695312 39.472656 188.652344 C 42.398438 188.527344 45.328125 188.472656 48.261719 188.519531 C 51.351562 188.570312 54.4375 188.710938 57.527344 188.84375 C 60.257812 188.960938 62.992188 189.078125 65.726562 189.140625 C 68.21875 189.199219 70.714844 189.175781 73.191406 188.894531 C 75.949219 188.578125 78.769531 187.972656 81.183594 186.546875 C 81.1875 186.546875 81.1875 186.542969 81.183594 186.539062 C 81.183594 186.539062 81.179688 186.539062 81.179688 186.539062 " fill-opacity="1" fill-rule="nonzero"/><path fill="#ffffff" d="M 65.023438 192.707031 C 65.046875 192.695312 65.070312 192.683594 65.09375 192.675781 C 65.097656 192.671875 65.101562 192.671875 65.105469 192.667969 C 65.078125 192.679688 65.050781 192.695312 65.023438 192.707031 M 47.589844 198.683594 C 47.519531 198.691406 47.453125 198.703125 47.382812 198.714844 C 47.453125 198.703125 47.519531 198.691406 47.589844 198.683594 M 74.496094 188.457031 C 71.375 189.875 68.25 191.296875 65.105469 192.667969 L 65.140625 192.65625 C 65.125 192.660156 65.109375 192.667969 65.09375 192.675781 C 65.058594 192.691406 65.023438 192.703125 64.988281 192.71875 L 65.25 192.605469 C 65.125 192.660156 65 192.714844 64.875 192.769531 C 64.925781 192.746094 64.972656 192.726562 65.023438 192.707031 C 63.203125 193.496094 61.375 194.269531 59.539062 195.019531 C 57.660156 195.78125 55.777344 196.527344 53.847656 197.148438 C 51.71875 197.832031 49.539062 198.371094 47.328125 198.722656 C 44.605469 199.121094 41.859375 199.171875 39.121094 198.910156 C 36.746094 198.648438 34.410156 198.132812 32.167969 197.308594 C 29.707031 196.371094 27.390625 195.09375 25.253906 193.554688 C 25.25 193.554688 25.242188 193.558594 25.25 193.5625 C 26.585938 195.230469 28.121094 196.703125 29.855469 197.953125 C 31.503906 199.144531 33.320312 200.050781 35.238281 200.730469 C 38.9375 202.039062 42.929688 202.15625 46.796875 201.65625 C 50.851562 201.136719 54.785156 199.984375 58.574219 198.46875 C 62.449219 196.917969 66.0625 194.800781 69.457031 192.386719 C 70.6875 191.511719 71.890625 190.589844 73.070312 189.644531 C 73.066406 189.644531 73.0625 189.648438 73.058594 189.652344 C 73.542969 189.261719 74.023438 188.863281 74.503906 188.464844 C 74.503906 188.460938 74.503906 188.457031 74.5 188.457031 C 74.5 188.453125 74.5 188.453125 74.496094 188.457031 " fill-opacity="1" fill-rule="nonzero"/><path fill="#ffffff" d="M 10.152344 216.335938 C 10.058594 216.300781 9.96875 216.269531 9.875 216.234375 C 9.96875 216.269531 10.058594 216.300781 10.152344 216.335938 M 49.738281 223.144531 C 43.890625 221.089844 37.6875 220.378906 31.578125 219.542969 C 28.472656 219.117188 25.414062 218.378906 22.40625 217.5 C 19.46875 216.644531 16.589844 215.609375 13.671875 214.695312 C 11.84375 214.121094 10.003906 213.582031 8.121094 213.234375 C 6.027344 212.851562 3.863281 212.679688 1.757812 213.0625 C 0.207031 213.339844 -1.292969 214.015625 -2.371094 215.1875 C -2.375 215.191406 -2.371094 215.195312 -2.367188 215.195312 C -2.101562 215.027344 -1.820312 214.882812 -1.53125 214.753906 C -1.542969 214.761719 -1.550781 214.765625 -1.5625 214.769531 C -1.007812 214.53125 -0.425781 214.371094 0.171875 214.277344 C 1.015625 214.15625 1.871094 214.167969 2.71875 214.25 C 5.175781 214.523438 7.546875 215.359375 9.855469 216.226562 C 10.800781 216.582031 11.75 216.953125 12.699219 217.304688 C 14.003906 217.789062 15.328125 218.226562 16.648438 218.664062 C 19.613281 219.652344 22.601562 220.585938 25.644531 221.3125 C 28.78125 222.0625 31.957031 222.53125 35.171875 222.730469 C 38.25 222.925781 41.335938 222.914062 44.421875 222.960938 C 46.195312 222.988281 47.96875 223.039062 49.738281 223.152344 C 49.742188 223.152344 49.742188 223.144531 49.738281 223.144531 " fill-opacity="1" fill-rule="nonzero"/><g clip-path="url(#308e04e737)"><path fill="#ffffff" d="M 0.8125 222.128906 C 0.855469 222.160156 0.902344 222.191406 0.945312 222.222656 C 0.902344 222.191406 0.855469 222.160156 0.8125 222.128906 M 13.695312 227.097656 C 13.65625 227.09375 13.617188 227.089844 13.574219 227.082031 C 13.617188 227.085938 13.65625 227.09375 13.695312 227.097656 M 45.78125 221.949219 C 43.566406 221.5625 41.300781 221.640625 39.089844 221.976562 C 36.703125 222.339844 34.375 222.960938 32.074219 223.679688 C 28.476562 224.804688 24.953125 226.242188 21.21875 226.851562 C 18.664062 227.230469 16.046875 227.316406 13.472656 227.070312 C 11.285156 226.824219 9.152344 226.296875 7.089844 225.53125 C 4.84375 224.660156 2.726562 223.503906 0.769531 222.09375 C -1.40625 220.492188 -3.371094 218.632812 -5.175781 216.628906 C -5.179688 216.625 -5.183594 216.628906 -5.183594 216.632812 C -3.960938 219.109375 -2.421875 221.421875 -0.515625 223.425781 C 1.253906 225.285156 3.378906 226.847656 5.710938 227.933594 C 8.214844 229.101562 10.90625 229.675781 13.644531 229.933594 C 16.472656 230.199219 19.351562 230.035156 22.148438 229.566406 C 26.816406 228.792969 31.179688 226.867188 35.515625 225.046875 C 38.488281 223.796875 41.535156 222.582031 44.742188 222.089844 C 44.730469 222.089844 44.71875 222.09375 44.707031 222.09375 C 45.0625 222.042969 45.421875 221.996094 45.777344 221.960938 C 45.78125 221.960938 45.785156 221.953125 45.78125 221.949219 " fill-opacity="1" fill-rule="nonzero"/></g></svg>