<svg xmlns="http://www.w3.org/2000/svg" xmlns:xlink="http://www.w3.org/1999/xlink" width="1366" zoomAndPan="magnify" viewBox="0 0 1024.5 576" height="768" preserveAspectRatio="xMidYMid meet" version="1.0"><defs><clipPath id="4006684159"><path d="M 0 0.140625 L 1024 0.140625 L 1024 575.859375 L 0 575.859375 Z M 0 0.140625 " clip-rule="nonzero"/></clipPath><clipPath id="d6f38fdd28"><path d="M 0 90.074219 L 91 90.074219 L 91 282 L 0 282 Z M 0 90.074219 " clip-rule="nonzero"/></clipPath><clipPath id="8264abdf16"><path d="M 88 132 L 120.792969 132 L 120.792969 165 L 88 165 Z M 88 132 " clip-rule="nonzero"/></clipPath><clipPath id="3c85377cb9"><path d="M 80 171 L 120.792969 171 L 120.792969 189 L 80 189 Z M 80 171 " clip-rule="nonzero"/></clipPath><clipPath id="13bb855eaf"><path d="M 11 276 L 56 276 L 56 287.976562 L 11 287.976562 Z M 11 276 " clip-rule="nonzero"/></clipPath></defs><g clip-path="url(#4006684159)"><path fill="#ffffff" d="M 0 0.140625 L 1024 0.140625 L 1024 575.859375 L 0 575.859375 Z M 0 0.140625 " fill-opacity="1" fill-rule="nonzero"/><path fill="#37622d" d="M 0 0.140625 L 1024 0.140625 L 1024 575.859375 L 0 575.859375 Z M 0 0.140625 " fill-opacity="1" fill-rule="nonzero"/></g><g clip-path="url(#d6f38fdd28)"><path fill="#ffffff" d="M 16.761719 271.183594 C 16.695312 271.226562 16.625 271.269531 16.558594 271.308594 C 16.625 271.269531 16.695312 271.226562 16.761719 271.183594 M 90.902344 90.179688 C 89.1875 95.285156 87.273438 100.332031 85.992188 105.574219 C 84.679688 110.949219 83.558594 116.386719 83.332031 121.929688 C 83.226562 124.457031 83.351562 126.976562 83.757812 129.472656 C 84.148438 131.875 84.808594 134.226562 85.5 136.558594 C 86.152344 138.753906 86.84375 140.933594 87.402344 143.152344 C 87.992188 145.476562 88.386719 147.839844 88.496094 150.238281 C 88.546875 152.652344 88.261719 155.0625 87.929688 157.453125 C 87.5625 160.058594 87.046875 162.644531 86.445312 165.210938 C 84.144531 174.71875 80.542969 183.84375 76.632812 192.789062 C 74.992188 196.542969 73.324219 200.285156 71.554688 203.972656 C 70.078125 207.046875 68.515625 210.082031 66.890625 213.078125 C 63.0625 220.082031 58.859375 226.882812 54.277344 233.421875 C 49.46875 240.28125 44.222656 246.839844 38.480469 252.9375 C 31.898438 259.878906 24.640625 266.234375 16.527344 271.328125 C 14.800781 272.394531 13.042969 273.40625 11.246094 274.347656 C 9.398438 275.3125 7.503906 276.183594 5.613281 277.0625 C 1.863281 278.804688 -1.953125 280.40625 -5.875 281.730469 C -5.878906 281.730469 -5.875 281.734375 -5.871094 281.734375 C -3.664062 281.621094 -1.480469 281.332031 0.683594 280.878906 C 2.863281 280.417969 5.003906 279.765625 7.078125 278.972656 C 9.203125 278.167969 11.238281 277.136719 13.230469 276.0625 C 15.28125 274.960938 17.269531 273.757812 19.222656 272.496094 C 27.351562 267.25 34.574219 260.699219 41.15625 253.636719 C 47.90625 246.398438 53.933594 238.496094 59.398438 230.253906 C 64.5 222.558594 69.097656 214.515625 73.167969 206.230469 C 74.121094 204.296875 75.027344 202.347656 75.917969 200.382812 C 77.183594 197.589844 78.441406 194.785156 79.65625 191.96875 C 82.152344 186.191406 84.476562 180.335938 86.402344 174.347656 C 88.300781 168.449219 89.78125 162.394531 90.554688 156.242188 C 90.734375 154.820312 90.878906 153.394531 90.929688 151.960938 C 90.980469 150.542969 90.898438 149.113281 90.746094 147.703125 C 90.464844 145.097656 89.804688 142.546875 89.078125 140.035156 C 88.382812 137.625 87.605469 135.242188 86.976562 132.8125 C 86.308594 130.234375 85.855469 127.609375 85.746094 124.945312 C 85.617188 118.953125 86.714844 113.035156 88.09375 107.222656 C 88.074219 107.304688 88.054688 107.382812 88.035156 107.460938 C 88.371094 106.058594 88.71875 104.652344 89.03125 103.242188 C 89.347656 101.800781 89.636719 100.347656 89.890625 98.890625 C 90.402344 96.011719 90.757812 93.105469 90.910156 90.183594 C 90.910156 90.179688 90.910156 90.179688 90.90625 90.175781 C 90.90625 90.175781 90.902344 90.175781 90.902344 90.179688 " fill-opacity="1" fill-rule="nonzero"/></g><path fill="#ffffff" d="M 94.753906 119.527344 C 94.761719 119.578125 94.765625 119.628906 94.769531 119.679688 C 94.761719 119.625 94.757812 119.578125 94.753906 119.527344 M 88.980469 98.527344 C 88.441406 102.15625 89.738281 105.707031 91.15625 108.980469 C 92.054688 111.058594 93.082031 113.097656 93.839844 115.238281 C 94.304688 116.613281 94.636719 118.03125 94.753906 119.476562 C 94.828125 120.851562 94.730469 122.242188 94.597656 123.609375 C 94.457031 125.050781 94.230469 126.484375 93.949219 127.90625 C 93.464844 130.257812 92.820312 132.578125 92.238281 134.910156 C 91.636719 137.324219 91.058594 139.742188 90.566406 142.179688 C 90.292969 143.539062 90.054688 144.902344 89.867188 146.277344 C 89.867188 146.28125 89.875 146.28125 89.875 146.277344 C 91.824219 141.792969 93.949219 137.351562 95.308594 132.640625 C 95.648438 131.46875 95.929688 130.273438 96.183594 129.082031 C 96.457031 127.804688 96.691406 126.523438 96.867188 125.226562 C 97.035156 124.015625 97.144531 122.792969 97.191406 121.570312 C 97.238281 120.449219 97.214844 119.335938 97.070312 118.222656 C 96.824219 116.296875 96.199219 114.433594 95.449219 112.648438 C 94.734375 110.949219 93.808594 109.34375 92.878906 107.75 C 91.695312 105.71875 90.472656 103.679688 89.683594 101.453125 C 89.355469 100.503906 89.113281 99.527344 88.988281 98.527344 C 88.988281 98.527344 88.984375 98.527344 88.984375 98.527344 C 88.984375 98.527344 88.980469 98.527344 88.980469 98.527344 " fill-opacity="1" fill-rule="nonzero"/><g clip-path="url(#8264abdf16)"><path fill="#ffffff" d="M 96.8125 151.546875 C 96.789062 151.574219 96.765625 151.601562 96.746094 151.625 C 96.765625 151.601562 96.789062 151.574219 96.8125 151.546875 M 120.121094 132.445312 C 115.757812 134.59375 111.375 136.765625 107.332031 139.484375 C 105.230469 140.898438 103.191406 142.417969 101.230469 144.019531 C 99.359375 145.546875 97.566406 147.175781 95.910156 148.929688 C 95.039062 149.859375 94.195312 150.816406 93.433594 151.832031 C 92.714844 152.78125 92.070312 153.785156 91.484375 154.824219 C 90.273438 156.984375 89.359375 159.296875 88.800781 161.714844 C 88.566406 162.734375 88.394531 163.773438 88.285156 164.8125 C 88.285156 164.816406 88.292969 164.820312 88.292969 164.816406 C 88.71875 163.734375 89.195312 162.675781 89.714844 161.640625 C 89.703125 161.675781 89.683594 161.707031 89.667969 161.742188 C 90.605469 159.878906 91.699219 158.097656 92.914062 156.398438 C 94.070312 154.777344 95.332031 153.238281 96.644531 151.746094 C 99.859375 148.121094 103.652344 145.0625 107.589844 142.265625 C 111.5625 139.4375 115.484375 136.511719 119.164062 133.304688 C 119.484375 133.023438 119.808594 132.738281 120.125 132.453125 C 120.128906 132.449219 120.128906 132.445312 120.125 132.445312 C 120.125 132.445312 120.121094 132.445312 120.121094 132.445312 " fill-opacity="1" fill-rule="nonzero"/></g><path fill="#ffffff" d="M 111.160156 145.316406 C 111.171875 145.292969 111.1875 145.265625 111.199219 145.242188 Z M 95.125 162.585938 C 95.125 162.585938 95.128906 162.585938 95.128906 162.582031 C 95.125 162.585938 95.125 162.585938 95.125 162.585938 M 100.515625 157.648438 C 100.484375 157.683594 100.453125 157.71875 100.421875 157.757812 C 100.453125 157.71875 100.484375 157.683594 100.515625 157.648438 M 113.84375 139.863281 C 113.832031 139.890625 113.816406 139.917969 113.800781 139.945312 C 113.816406 139.917969 113.828125 139.890625 113.84375 139.863281 M 116.835938 134.734375 C 115.96875 135.363281 115.214844 136.109375 114.5 136.902344 C 113.945312 137.519531 113.414062 138.152344 112.902344 138.804688 C 111.875 140.109375 110.929688 141.480469 110.027344 142.878906 C 108.136719 145.8125 106.53125 148.917969 104.683594 151.878906 C 103.386719 153.957031 101.980469 155.976562 100.363281 157.820312 C 98.789062 159.585938 97.082031 161.246094 95.128906 162.582031 C 95.148438 162.570312 95.171875 162.554688 95.195312 162.539062 C 95.171875 162.554688 95.148438 162.570312 95.125 162.585938 C 95.085938 162.613281 95.042969 162.644531 95 162.671875 C 95.042969 162.644531 95.082031 162.613281 95.125 162.585938 C 93.796875 163.464844 92.375 164.195312 90.878906 164.722656 C 89.769531 165.105469 88.632812 165.386719 87.476562 165.574219 C 87.472656 165.578125 87.472656 165.582031 87.476562 165.582031 C 89.195312 165.78125 90.941406 165.707031 92.632812 165.34375 C 94.25 164.992188 95.8125 164.371094 97.242188 163.539062 C 98.703125 162.691406 100.054688 161.636719 101.25 160.4375 C 102.492188 159.1875 103.605469 157.792969 104.632812 156.363281 C 105.648438 154.953125 106.585938 153.488281 107.476562 152 C 108.382812 150.492188 109.261719 148.96875 110.082031 147.417969 C 110.453125 146.722656 110.808594 146.019531 111.160156 145.316406 C 111.128906 145.378906 111.097656 145.441406 111.066406 145.507812 C 111.984375 143.675781 112.863281 141.828125 113.777344 139.996094 C 113.761719 140.027344 113.742188 140.0625 113.726562 140.101562 C 113.738281 140.070312 113.753906 140.039062 113.769531 140.011719 C 114.160156 139.230469 114.5625 138.460938 114.976562 137.691406 C 115.535156 136.667969 116.117188 135.652344 116.839844 134.738281 C 116.84375 134.734375 116.839844 134.734375 116.839844 134.730469 C 116.839844 134.730469 116.835938 134.730469 116.835938 134.734375 " fill-opacity="1" fill-rule="nonzero"/><path fill="#ffffff" d="M 73.199219 147.027344 C 73.203125 147.097656 73.210938 147.167969 73.214844 147.242188 C 73.210938 147.167969 73.203125 147.097656 73.199219 147.027344 M 73.242188 134.917969 C 72.34375 138.546875 71.269531 142.15625 70.988281 145.898438 C 70.84375 147.828125 70.945312 149.785156 71.382812 151.671875 C 71.789062 153.421875 72.472656 155.097656 73.421875 156.621094 C 75.390625 159.777344 78.0625 162.46875 81.085938 164.625 C 82.113281 165.355469 83.1875 166.011719 84.316406 166.574219 C 85.253906 167.042969 86.238281 167.433594 87.265625 167.664062 C 87.269531 167.664062 87.273438 167.65625 87.269531 167.65625 C 86.070312 167.011719 84.992188 166.148438 83.976562 165.25 C 84.007812 165.277344 84.039062 165.308594 84.074219 165.335938 C 82.710938 164.128906 81.449219 162.808594 80.242188 161.449219 C 79.027344 160.085938 77.875 158.664062 76.78125 157.203125 C 76.480469 156.800781 76.1875 156.394531 75.902344 155.980469 C 75.199219 154.910156 74.605469 153.78125 74.171875 152.574219 C 73.605469 150.859375 73.347656 149.054688 73.21875 147.257812 C 72.980469 143.546875 73.296875 139.828125 73.269531 136.113281 C 73.269531 135.714844 73.261719 135.316406 73.25 134.917969 C 73.25 134.917969 73.246094 134.917969 73.246094 134.917969 C 73.246094 134.917969 73.242188 134.917969 73.242188 134.917969 " fill-opacity="1" fill-rule="nonzero"/><path fill="#ffffff" d="M 75.597656 141.523438 C 75.609375 141.535156 75.625 141.546875 75.636719 141.558594 C 75.617188 141.542969 75.597656 141.527344 75.582031 141.507812 Z M 73.617188 139.378906 C 73.621094 139.394531 73.632812 139.40625 73.640625 139.421875 C 73.632812 139.40625 73.621094 139.394531 73.617188 139.378906 M 72.976562 137.824219 C 72.792969 139.074219 73.441406 140.332031 74.089844 141.351562 C 74.945312 142.699219 76.007812 143.898438 77.082031 145.074219 C 77.554688 145.59375 78.035156 146.109375 78.503906 146.636719 C 78.863281 147.042969 79.214844 147.457031 79.523438 147.902344 C 80.027344 148.671875 80.480469 149.472656 80.925781 150.273438 C 81.425781 151.171875 81.890625 152.089844 82.3125 153.023438 C 83.152344 154.898438 83.90625 156.8125 84.582031 158.753906 C 84.550781 158.671875 84.523438 158.589844 84.492188 158.507812 C 85 159.976562 85.460938 161.460938 85.886719 162.953125 C 86.34375 164.558594 86.757812 166.179688 87.042969 167.828125 C 87.042969 167.832031 87.050781 167.832031 87.050781 167.828125 C 87.285156 165.550781 87.179688 163.242188 86.910156 160.972656 C 86.660156 158.84375 86.222656 156.726562 85.554688 154.6875 C 84.863281 152.578125 83.949219 150.523438 82.785156 148.628906 C 82.460938 148.109375 82.117188 147.597656 81.761719 147.097656 C 81.546875 146.796875 81.324219 146.496094 81.078125 146.21875 C 80.601562 145.683594 80.054688 145.207031 79.511719 144.738281 C 78.242188 143.652344 76.894531 142.664062 75.636719 141.558594 C 75.648438 141.566406 75.65625 141.574219 75.664062 141.585938 C 75.640625 141.5625 75.617188 141.542969 75.597656 141.523438 C 75.582031 141.507812 75.566406 141.496094 75.550781 141.484375 C 75.5625 141.492188 75.570312 141.5 75.582031 141.507812 C 74.859375 140.863281 74.152344 140.175781 73.609375 139.371094 C 73.414062 139.074219 73.242188 138.757812 73.125 138.421875 C 73.125 138.425781 73.125 138.429688 73.125 138.429688 C 73.058594 138.234375 73.007812 138.03125 72.980469 137.824219 C 72.976562 137.820312 72.976562 137.824219 72.976562 137.824219 " fill-opacity="1" fill-rule="nonzero"/><path fill="#ffffff" d="M 58.003906 170.550781 C 58.015625 170.570312 58.027344 170.59375 58.042969 170.613281 C 58.027344 170.59375 58.015625 170.570312 58.003906 170.550781 M 54.769531 162.84375 C 54.617188 166.242188 55.4375 169.636719 56.964844 172.671875 C 57.773438 174.28125 58.777344 175.808594 59.925781 177.195312 C 61.085938 178.601562 62.40625 179.886719 63.765625 181.09375 C 65.078125 182.261719 66.464844 183.335938 67.945312 184.277344 C 69.46875 185.242188 71.070312 186.082031 72.722656 186.800781 C 75.003906 187.796875 77.398438 188.542969 79.839844 189.027344 C 79.847656 189.03125 79.847656 189.023438 79.84375 189.023438 C 79.441406 188.816406 79.039062 188.609375 78.640625 188.394531 L 78.683594 188.417969 C 75.722656 186.832031 72.890625 185.015625 70.175781 183.042969 C 68.25 181.640625 66.34375 180.179688 64.59375 178.558594 C 63.375 177.410156 62.246094 176.175781 61.171875 174.890625 C 60.085938 173.589844 59.070312 172.234375 58.164062 170.804688 C 58.140625 170.769531 58.117188 170.734375 58.097656 170.703125 C 56.851562 168.679688 55.828125 166.519531 55.144531 164.238281 C 55.011719 163.777344 54.886719 163.3125 54.777344 162.84375 C 54.777344 162.839844 54.777344 162.839844 54.777344 162.839844 C 54.773438 162.835938 54.769531 162.839844 54.769531 162.84375 " fill-opacity="1" fill-rule="nonzero"/><path fill="#ffffff" d="M 75.308594 181.433594 C 75.328125 181.460938 75.34375 181.488281 75.359375 181.515625 C 75.34375 181.488281 75.328125 181.460938 75.308594 181.433594 M 63.75 169.484375 C 63.722656 169.46875 63.691406 169.453125 63.664062 169.4375 C 63.691406 169.453125 63.722656 169.46875 63.75 169.484375 M 63.894531 169.558594 C 63.859375 169.542969 63.824219 169.523438 63.789062 169.503906 C 63.824219 169.523438 63.859375 169.542969 63.894531 169.558594 M 63.96875 167.410156 C 62.894531 167.046875 61.789062 166.804688 60.667969 166.625 C 59.613281 166.457031 58.554688 166.324219 57.515625 166.078125 C 57.515625 166.078125 57.523438 166.078125 57.527344 166.082031 C 56.851562 165.910156 56.183594 165.695312 55.566406 165.367188 C 55.367188 165.257812 55.175781 165.136719 54.996094 165.003906 C 54.992188 165.003906 54.988281 165.007812 54.988281 165.011719 C 56.007812 166.296875 57.605469 166.988281 59.097656 167.558594 C 59.863281 167.847656 60.640625 168.105469 61.402344 168.402344 C 62.210938 168.714844 63 169.089844 63.765625 169.492188 C 65.597656 170.484375 67.300781 171.714844 68.832031 173.125 C 70.160156 174.386719 71.316406 175.808594 72.425781 177.261719 C 73.492188 178.660156 74.488281 180.109375 75.417969 181.605469 C 76.796875 183.847656 78.039062 186.171875 79.265625 188.5 C 79.265625 188.503906 79.273438 188.503906 79.273438 188.5 C 78.816406 186.359375 78.25 184.246094 77.503906 182.1875 C 76.742188 180.101562 75.765625 178.113281 74.578125 176.242188 C 73.308594 174.238281 71.742188 172.449219 69.972656 170.875 C 69.007812 170.015625 67.941406 169.273438 66.804688 168.652344 C 65.898438 168.15625 64.949219 167.742188 63.96875 167.410156 " fill-opacity="1" fill-rule="nonzero"/><g clip-path="url(#3c85377cb9)"><path fill="#ffffff" d="M 96.164062 178.394531 C 96.136719 178.40625 96.113281 178.414062 96.089844 178.421875 C 96.113281 178.414062 96.136719 178.40625 96.164062 178.394531 M 120.816406 171.210938 C 117.34375 171.628906 113.851562 171.9375 110.386719 172.414062 C 108.628906 172.652344 106.875 172.9375 105.144531 173.320312 C 103.421875 173.699219 101.707031 174.117188 100.011719 174.59375 C 98.25 175.085938 96.519531 175.65625 94.808594 176.308594 C 93.210938 176.917969 91.640625 177.613281 90.164062 178.480469 C 87.074219 180.292969 84.378906 182.746094 82.378906 185.730469 C 81.851562 186.519531 81.378906 187.347656 80.953125 188.199219 C 80.949219 188.203125 80.953125 188.207031 80.957031 188.203125 C 82.546875 186.457031 84.320312 184.894531 86.246094 183.527344 C 87.613281 182.570312 89.050781 181.714844 90.53125 180.941406 C 92.046875 180.152344 93.597656 179.421875 95.179688 178.78125 C 95.527344 178.640625 95.871094 178.507812 96.21875 178.375 C 99.472656 177.179688 102.832031 176.359375 106.207031 175.59375 C 109.648438 174.820312 113.074219 173.9375 116.425781 172.835938 C 117.910156 172.347656 119.375 171.816406 120.820312 171.21875 C 120.824219 171.214844 120.820312 171.214844 120.820312 171.210938 C 120.816406 171.210938 120.816406 171.210938 120.816406 171.210938 " fill-opacity="1" fill-rule="nonzero"/></g><path fill="#ffffff" d="M 81.425781 190.476562 C 81.429688 190.476562 81.433594 190.480469 81.433594 190.480469 C 81.433594 190.480469 81.429688 190.476562 81.425781 190.476562 M 84.949219 191.402344 C 84.917969 191.40625 84.882812 191.410156 84.851562 191.410156 C 84.882812 191.410156 84.917969 191.40625 84.949219 191.402344 M 85.019531 191.394531 C 85 191.398438 84.980469 191.398438 84.957031 191.402344 C 84.980469 191.398438 85 191.398438 85.019531 191.394531 M 88.589844 190.46875 C 88.546875 190.484375 88.503906 190.5 88.457031 190.519531 C 88.503906 190.5 88.546875 190.484375 88.589844 190.46875 M 116.84375 171.816406 C 114.984375 172.453125 113.25 173.410156 111.628906 174.515625 C 109.882812 175.703125 108.25 177.050781 106.675781 178.453125 C 104.371094 180.5 102.207031 182.707031 99.695312 184.507812 C 97.820312 185.8125 95.832031 186.957031 93.808594 188.015625 C 92.054688 188.9375 90.28125 189.832031 88.425781 190.527344 C 87.304688 190.9375 86.144531 191.28125 84.953125 191.402344 C 84.402344 191.445312 83.851562 191.441406 83.308594 191.347656 C 82.953125 191.277344 82.605469 191.171875 82.277344 191.023438 C 81.980469 190.878906 81.699219 190.699219 81.445312 190.492188 C 81.148438 190.238281 80.890625 189.949219 80.667969 189.632812 C 80.660156 189.621094 80.652344 189.613281 80.648438 189.601562 C 80.644531 189.597656 80.636719 189.601562 80.640625 189.605469 C 81.003906 190.648438 81.722656 191.503906 82.703125 192.015625 C 83.785156 192.578125 85.039062 192.742188 86.246094 192.707031 C 87.679688 192.667969 89.097656 192.386719 90.464844 191.976562 C 91.9375 191.535156 93.375 190.957031 94.753906 190.277344 C 95.941406 189.699219 97.089844 189.039062 98.21875 188.355469 C 99.066406 187.847656 99.902344 187.316406 100.714844 186.757812 C 102.460938 185.5625 104.0625 184.1875 105.609375 182.746094 C 107.136719 181.324219 108.539062 179.777344 109.953125 178.25 C 112.035156 176 114.144531 173.730469 116.660156 171.953125 L 116.652344 171.960938 C 116.71875 171.914062 116.78125 171.871094 116.847656 171.824219 C 116.851562 171.824219 116.851562 171.820312 116.847656 171.820312 C 116.847656 171.816406 116.847656 171.816406 116.84375 171.816406 " fill-opacity="1" fill-rule="nonzero"/><path fill="#ffffff" d="M 47.796875 186.714844 C 48.28125 190.375 48.953125 194.050781 50.511719 197.429688 C 52.136719 200.949219 54.847656 203.871094 58.03125 206.042969 C 60.320312 207.609375 62.777344 208.886719 65.238281 210.167969 C 66.679688 210.921875 68.125 211.671875 69.535156 212.480469 C 69.539062 212.484375 69.546875 212.480469 69.542969 212.476562 C 66.378906 209.242188 62.621094 206.6875 59.085938 203.894531 C 58.039062 203.058594 57.015625 202.1875 56.082031 201.222656 C 55.238281 200.355469 54.464844 199.414062 53.746094 198.441406 C 51.742188 195.65625 50.300781 192.542969 48.949219 189.402344 C 48.566406 188.503906 48.1875 187.609375 47.804688 186.714844 C 47.804688 186.710938 47.804688 186.710938 47.800781 186.710938 C 47.800781 186.710938 47.796875 186.714844 47.796875 186.714844 " fill-opacity="1" fill-rule="nonzero"/><path fill="#ffffff" d="M 61.644531 197.039062 C 61.675781 197.066406 61.707031 197.089844 61.738281 197.117188 C 61.707031 197.089844 61.675781 197.066406 61.644531 197.039062 M 60.199219 193.304688 C 59.082031 192.761719 57.921875 192.320312 56.738281 191.953125 C 53.90625 191.074219 50.972656 190.617188 48.089844 189.972656 C 48.082031 189.972656 48.082031 189.976562 48.085938 189.980469 C 52.210938 192.203125 56.746094 193.617188 60.625 196.300781 C 61.023438 196.574219 61.410156 196.863281 61.792969 197.160156 C 62.902344 198.066406 63.929688 199.09375 64.792969 200.238281 C 65.480469 201.195312 66.039062 202.234375 66.476562 203.328125 C 67.449219 205.917969 67.785156 208.691406 68.394531 211.375 C 68.398438 211.378906 68.402344 211.378906 68.402344 211.375 C 68.496094 209.558594 68.640625 207.730469 68.578125 205.90625 C 68.546875 204.992188 68.457031 204.078125 68.289062 203.179688 C 68.113281 202.242188 67.824219 201.339844 67.457031 200.464844 C 66.597656 198.429688 65.117188 196.703125 63.402344 195.335938 C 62.609375 194.703125 61.773438 194.144531 60.890625 193.660156 C 60.664062 193.535156 60.429688 193.417969 60.199219 193.304688 " fill-opacity="1" fill-rule="nonzero"/><path fill="#ffffff" d="M 36.851562 203.269531 C 37.394531 207.285156 37.664062 211.375 38.804688 215.285156 C 39.394531 217.304688 40.234375 219.246094 41.359375 221.03125 C 42.574219 222.953125 44.078125 224.660156 45.773438 226.167969 C 48.820312 228.875 52.320312 230.980469 55.578125 233.410156 C 55.582031 233.414062 55.585938 233.40625 55.582031 233.40625 C 52.839844 229.847656 49.453125 226.871094 46.449219 223.554688 C 45.648438 222.675781 44.867188 221.769531 44.15625 220.816406 C 42.710938 218.796875 41.691406 216.511719 40.804688 214.203125 C 39.429688 210.578125 38.394531 206.824219 36.855469 203.265625 C 36.855469 203.261719 36.851562 203.265625 36.851562 203.269531 " fill-opacity="1" fill-rule="nonzero"/><path fill="#ffffff" d="M 52.070312 222.621094 C 52.066406 222.613281 52.066406 222.601562 52.058594 222.59375 C 52.058594 222.585938 52.054688 222.582031 52.054688 222.578125 C 52.058594 222.59375 52.066406 222.605469 52.070312 222.621094 M 39.660156 206.609375 C 38.796875 206.449219 37.921875 206.363281 37.046875 206.339844 C 37.042969 206.339844 37.042969 206.347656 37.046875 206.347656 C 37.816406 206.585938 38.574219 206.867188 39.316406 207.191406 C 40.808594 207.851562 42.210938 208.699219 43.496094 209.707031 C 45.066406 210.96875 46.425781 212.460938 47.625 214.078125 C 48.5625 215.367188 49.402344 216.722656 50.125 218.144531 C 50.847656 219.582031 51.472656 221.078125 52.054688 222.578125 C 52.042969 222.550781 52.035156 222.523438 52.023438 222.496094 C 52.035156 222.527344 52.050781 222.558594 52.058594 222.59375 C 52.085938 222.652344 52.109375 222.71875 52.132812 222.78125 C 52.113281 222.726562 52.09375 222.671875 52.070312 222.621094 C 53.386719 226.078125 54.425781 229.644531 55.253906 233.25 C 55.308594 233.488281 55.363281 233.726562 55.414062 233.96875 C 55.417969 233.96875 55.425781 233.96875 55.425781 233.964844 C 55.632812 230.230469 55.351562 226.4375 54.445312 222.808594 C 53.964844 220.878906 53.273438 219.007812 52.398438 217.222656 C 51.539062 215.476562 50.511719 213.804688 49.261719 212.316406 C 47.890625 210.683594 46.226562 209.3125 44.367188 208.296875 C 42.898438 207.496094 41.3125 206.917969 39.660156 206.609375 " fill-opacity="1" fill-rule="nonzero"/><path fill="#ffffff" d="M 35.953125 254.757812 C 35.949219 254.757812 35.949219 254.757812 35.945312 254.753906 C 35.949219 254.757812 35.949219 254.757812 35.953125 254.757812 M 34.851562 253.597656 C 34.863281 253.609375 34.875 253.628906 34.886719 253.640625 C 34.875 253.628906 34.863281 253.613281 34.851562 253.597656 M 27.46875 213.167969 C 27.230469 217.949219 27.066406 222.757812 27.351562 227.542969 C 27.421875 228.742188 27.535156 229.941406 27.644531 231.140625 C 27.699219 231.738281 27.757812 232.339844 27.816406 232.9375 C 27.824219 233.003906 27.828125 233.074219 27.839844 233.140625 C 27.84375 233.320312 27.875 233.503906 27.894531 233.6875 C 27.910156 233.828125 27.921875 233.972656 27.9375 234.117188 C 27.96875 234.429688 28.003906 234.738281 28.039062 235.050781 C 28.101562 235.648438 28.171875 236.246094 28.242188 236.84375 C 28.390625 238.039062 28.550781 239.234375 28.726562 240.425781 C 28.960938 242.011719 29.210938 243.597656 29.601562 245.15625 C 30.023438 246.859375 30.59375 248.542969 31.347656 250.132812 C 31.992188 251.476562 32.804688 252.789062 33.882812 253.835938 C 34.816406 254.742188 35.992188 255.433594 37.308594 255.523438 C 37.316406 255.523438 37.316406 255.515625 37.3125 255.515625 C 37.207031 255.476562 37.105469 255.4375 37.003906 255.394531 C 36.628906 255.226562 36.277344 255.011719 35.953125 254.757812 C 35.953125 254.761719 35.957031 254.761719 35.960938 254.765625 C 35.957031 254.761719 35.957031 254.761719 35.953125 254.757812 C 35.941406 254.75 35.925781 254.738281 35.914062 254.730469 C 35.925781 254.738281 35.9375 254.746094 35.945312 254.753906 C 35.53125 254.414062 35.167969 254.019531 34.851562 253.59375 C 34.277344 252.796875 33.851562 251.90625 33.492188 250.996094 C 32.902344 249.429688 32.511719 247.796875 32.183594 246.160156 C 31.890625 244.707031 31.652344 243.242188 31.410156 241.777344 C 30.941406 238.929688 30.578125 236.058594 30.28125 233.183594 C 30.277344 233.160156 30.277344 233.140625 30.277344 233.117188 C 30.273438 233.039062 30.265625 232.964844 30.253906 232.886719 C 30.015625 230.476562 29.839844 228.058594 29.566406 225.652344 C 29.296875 223.28125 28.960938 220.914062 28.554688 218.5625 C 28.242188 216.753906 27.882812 214.957031 27.476562 213.167969 C 27.476562 213.167969 27.476562 213.164062 27.476562 213.164062 C 27.472656 213.164062 27.46875 213.167969 27.46875 213.167969 " fill-opacity="1" fill-rule="nonzero"/><path fill="#ffffff" d="M 39.265625 245.96875 C 39.261719 245.996094 39.257812 246.023438 39.25 246.054688 C 39.257812 246.023438 39.261719 245.996094 39.265625 245.96875 M 38.554688 236.429688 C 38.566406 236.460938 38.578125 236.492188 38.59375 236.523438 C 38.578125 236.492188 38.566406 236.460938 38.554688 236.429688 M 38.476562 236.21875 C 38.484375 236.246094 38.496094 236.273438 38.503906 236.300781 C 38.496094 236.273438 38.484375 236.246094 38.476562 236.21875 M 29.972656 220.726562 C 29.992188 220.75 30.007812 220.773438 30.023438 220.796875 C 30.007812 220.773438 29.992188 220.75 29.972656 220.726562 M 28.269531 218.089844 C 29.039062 221.335938 30.75 224.234375 32.625 226.957031 C 33.550781 228.300781 34.523438 229.617188 35.460938 230.953125 C 36.390625 232.289062 37.28125 233.648438 37.988281 235.121094 C 38.183594 235.53125 38.363281 235.941406 38.527344 236.359375 C 39.007812 237.652344 39.332031 239 39.484375 240.371094 C 39.65625 242.308594 39.53125 244.246094 39.234375 246.164062 C 38.691406 249.449219 37.757812 252.664062 37.296875 255.96875 C 37.296875 255.972656 37.300781 255.972656 37.300781 255.96875 C 38.167969 253.992188 39.132812 252.058594 39.972656 250.066406 C 40.398438 249.058594 40.789062 248.03125 41.113281 246.984375 C 41.453125 245.890625 41.699219 244.777344 41.855469 243.640625 C 42.125 241.707031 41.96875 239.710938 41.523438 237.816406 C 41.125 236.117188 40.457031 234.476562 39.621094 232.945312 C 38.800781 231.4375 37.816406 230.011719 36.746094 228.667969 C 35.726562 227.382812 34.621094 226.171875 33.519531 224.953125 C 32.289062 223.585938 31.0625 222.207031 29.96875 220.722656 C 29.355469 219.878906 28.785156 219.003906 28.273438 218.089844 C 28.273438 218.085938 28.273438 218.085938 28.273438 218.085938 C 28.269531 218.085938 28.265625 218.085938 28.269531 218.089844 " fill-opacity="1" fill-rule="nonzero"/><path fill="#ffffff" d="M 10.429688 274.042969 C 10.4375 274.050781 10.441406 274.058594 10.445312 274.066406 C 10.441406 274.058594 10.4375 274.050781 10.429688 274.042969 M 9.210938 271.820312 C 9.21875 271.832031 9.222656 271.84375 9.226562 271.855469 C 9.222656 271.84375 9.21875 271.832031 9.210938 271.820312 M 13.578125 229.832031 C 11.890625 234.570312 10.242188 239.34375 9.113281 244.25 C 8.550781 246.714844 8.058594 249.203125 7.613281 251.691406 C 7.160156 254.238281 6.769531 256.796875 6.488281 259.367188 C 6.269531 261.378906 6.117188 263.398438 6.242188 265.421875 C 6.367188 267.371094 6.726562 269.300781 7.558594 271.078125 C 8.410156 272.894531 9.808594 274.394531 11.566406 275.351562 C 11.570312 275.355469 11.574219 275.347656 11.570312 275.347656 C 11.15625 274.941406 10.773438 274.503906 10.425781 274.039062 C 9.914062 273.328125 9.5 272.558594 9.183594 271.746094 C 8.816406 270.746094 8.601562 269.699219 8.484375 268.644531 C 8.3125 266.824219 8.421875 264.992188 8.582031 263.175781 C 8.777344 260.910156 9 258.644531 9.320312 256.390625 C 9.40625 255.769531 9.5 255.148438 9.597656 254.53125 C 9.59375 254.558594 9.589844 254.582031 9.585938 254.609375 C 9.976562 252.191406 10.4375 249.789062 10.933594 247.394531 C 11.195312 246.152344 11.472656 244.914062 11.714844 243.667969 C 11.957031 242.417969 12.179688 241.164062 12.386719 239.910156 C 12.933594 236.570312 13.359375 233.210938 13.585938 229.835938 C 13.585938 229.832031 13.585938 229.832031 13.585938 229.828125 C 13.582031 229.828125 13.578125 229.828125 13.578125 229.832031 " fill-opacity="1" fill-rule="nonzero"/><path fill="#ffffff" d="M 12.671875 234.851562 C 13.277344 238.296875 14.257812 241.664062 15.328125 244.992188 C 15.84375 246.585938 16.371094 248.183594 16.902344 249.773438 C 17.414062 251.304688 17.867188 252.859375 18.214844 254.4375 C 18.4375 255.449219 18.613281 256.472656 18.722656 257.503906 C 18.925781 259.625 18.933594 261.765625 18.617188 263.875 C 18.304688 265.789062 17.738281 267.644531 16.964844 269.421875 C 16.980469 269.386719 16.996094 269.355469 17.007812 269.324219 C 16.5625 270.335938 16.0625 271.320312 15.507812 272.285156 C 15.507812 272.289062 15.515625 272.292969 15.519531 272.289062 C 18.035156 269.8125 19.980469 266.730469 20.785156 263.265625 C 21.15625 261.671875 21.3125 260.027344 21.234375 258.394531 C 21.15625 256.75 20.882812 255.109375 20.515625 253.503906 C 19.753906 250.1875 18.554688 247 17.132812 243.914062 C 15.722656 240.855469 14.136719 237.882812 12.683594 234.847656 C 12.679688 234.847656 12.679688 234.847656 12.679688 234.847656 C 12.675781 234.847656 12.671875 234.847656 12.671875 234.851562 " fill-opacity="1" fill-rule="nonzero"/><path fill="#ffffff" d="M 84.402344 203.960938 C 84.429688 203.953125 84.457031 203.945312 84.480469 203.941406 C 84.449219 203.949219 84.417969 203.957031 84.386719 203.964844 C 84.390625 203.964844 84.398438 203.960938 84.402344 203.960938 M 106.136719 199.511719 C 103.105469 199.785156 100.058594 199.800781 97.023438 199.921875 C 95.390625 199.984375 93.757812 200.074219 92.128906 200.230469 C 90.492188 200.386719 88.859375 200.625 87.238281 200.90625 C 85.5625 201.195312 83.894531 201.546875 82.246094 201.992188 C 80.742188 202.402344 79.273438 202.929688 77.871094 203.625 C 76.449219 204.328125 75.105469 205.171875 73.898438 206.207031 C 72.71875 207.21875 71.683594 208.386719 70.847656 209.699219 C 70.332031 210.511719 69.894531 211.371094 69.542969 212.265625 C 69.542969 212.269531 69.546875 212.273438 69.550781 212.269531 C 70.183594 211.433594 70.890625 210.648438 71.652344 209.929688 C 72.898438 208.777344 74.296875 207.816406 75.789062 207.011719 C 77.097656 206.332031 78.46875 205.769531 79.867188 205.285156 C 81.339844 204.777344 82.835938 204.335938 84.351562 203.972656 C 85.917969 203.609375 87.496094 203.328125 89.089844 203.085938 C 90.71875 202.839844 92.351562 202.636719 93.980469 202.386719 C 97.136719 201.894531 100.296875 201.324219 103.371094 200.441406 C 104.304688 200.171875 105.230469 199.867188 106.136719 199.519531 C 106.140625 199.519531 106.140625 199.515625 106.136719 199.511719 " fill-opacity="1" fill-rule="nonzero"/><path fill="#ffffff" d="M 103.632812 200.328125 C 103.636719 200.328125 103.636719 200.324219 103.640625 200.324219 C 103.636719 200.324219 103.636719 200.328125 103.632812 200.328125 M 94.199219 206.824219 C 94.121094 206.863281 94.039062 206.910156 93.960938 206.953125 C 94.039062 206.910156 94.121094 206.863281 94.199219 206.824219 M 103.9375 200.039062 C 102.066406 200.96875 100.539062 202.402344 98.933594 203.707031 C 97.46875 204.894531 95.859375 205.90625 94.203125 206.820312 C 92.78125 207.589844 91.3125 208.292969 89.808594 208.890625 C 88.316406 209.484375 86.773438 209.964844 85.210938 210.351562 C 81.105469 211.335938 76.921875 211.96875 72.699219 212.125 C 71.476562 212.171875 70.253906 212.183594 69.03125 212.171875 C 69.027344 212.171875 69.027344 212.179688 69.03125 212.179688 C 71.089844 212.773438 73.191406 213.222656 75.320312 213.449219 C 77.519531 213.679688 79.753906 213.671875 81.953125 213.421875 C 84.101562 213.171875 86.230469 212.667969 88.292969 212.023438 C 90.296875 211.402344 92.238281 210.597656 94.0625 209.558594 C 95.910156 208.511719 97.628906 207.1875 99.105469 205.664062 C 100.691406 204.03125 101.882812 202.0625 103.5 200.460938 C 103.546875 200.414062 103.597656 200.367188 103.644531 200.320312 L 103.640625 200.324219 C 103.738281 200.230469 103.839844 200.136719 103.941406 200.046875 C 103.941406 200.042969 103.941406 200.039062 103.9375 200.039062 " fill-opacity="1" fill-rule="nonzero"/><path fill="#ffffff" d="M 71.675781 229.769531 C 71.621094 229.769531 71.566406 229.765625 71.515625 229.765625 C 71.585938 229.769531 71.65625 229.769531 71.726562 229.769531 C 71.710938 229.769531 71.691406 229.769531 71.675781 229.769531 M 57.433594 233.039062 L 57.445312 233.027344 Z M 62.742188 230.308594 C 62.6875 230.320312 62.632812 230.332031 62.582031 230.347656 C 62.632812 230.332031 62.6875 230.320312 62.742188 230.308594 M 99.101562 228.992188 C 98.824219 228.992188 98.542969 228.988281 98.265625 228.984375 C 98.265625 228.984375 98.269531 228.984375 98.269531 228.984375 C 93.78125 228.90625 89.324219 228.394531 84.851562 228.054688 C 82.597656 227.882812 80.339844 227.75 78.082031 227.609375 C 75.730469 227.464844 73.378906 227.359375 71.023438 227.328125 C 69.050781 227.304688 67.082031 227.398438 65.148438 227.824219 C 63.242188 228.242188 61.390625 228.921875 59.792969 230.0625 C 58.425781 231.039062 57.316406 232.355469 56.628906 233.894531 C 56.628906 233.898438 56.632812 233.898438 56.636719 233.898438 C 56.894531 233.585938 57.171875 233.289062 57.464844 233.007812 C 57.460938 233.015625 57.449219 233.023438 57.445312 233.027344 C 58.074219 232.433594 58.78125 231.921875 59.539062 231.5 C 60.496094 230.988281 61.511719 230.621094 62.554688 230.355469 C 65.480469 229.660156 68.527344 229.714844 71.515625 229.765625 L 71.460938 229.765625 C 71.53125 229.765625 71.601562 229.769531 71.675781 229.769531 C 71.707031 229.769531 71.742188 229.769531 71.773438 229.769531 L 71.726562 229.769531 C 73.910156 229.816406 76.089844 229.933594 78.269531 230.070312 C 80.527344 230.210938 82.78125 230.40625 85.039062 230.472656 C 89.636719 230.609375 94.253906 230.273438 98.714844 229.105469 C 98.84375 229.074219 98.972656 229.039062 99.101562 229 C 99.109375 229 99.105469 228.996094 99.101562 228.996094 C 99.101562 228.996094 99.101562 228.992188 99.101562 228.992188 " fill-opacity="1" fill-rule="nonzero"/><path fill="#ffffff" d="M 58.445312 235.277344 C 58.464844 235.285156 58.484375 235.289062 58.5 235.296875 C 58.511719 235.296875 58.519531 235.300781 58.527344 235.300781 C 58.5 235.292969 58.472656 235.285156 58.445312 235.277344 M 95.84375 229.519531 C 94.828125 229.613281 93.859375 229.953125 92.929688 230.355469 C 91.984375 230.765625 91.070312 231.246094 90.132812 231.679688 C 88.113281 232.613281 86.070312 233.492188 83.988281 234.277344 C 82.214844 234.945312 80.421875 235.570312 78.585938 236.027344 C 75.949219 236.652344 73.234375 236.90625 70.53125 236.875 C 66.492188 236.792969 62.421875 236.390625 58.527344 235.300781 C 58.539062 235.304688 58.550781 235.308594 58.558594 235.3125 C 57.394531 234.980469 56.242188 234.589844 55.125 234.117188 C 55.121094 234.113281 55.121094 234.117188 55.125 234.121094 C 58.324219 236.683594 62.285156 238.21875 66.292969 238.921875 C 68.417969 239.292969 70.570312 239.371094 72.722656 239.285156 C 74.691406 239.207031 76.660156 238.96875 78.582031 238.53125 C 80.835938 238.019531 83.039062 237.3125 85.128906 236.316406 C 87.203125 235.332031 89.171875 234.125 91.03125 232.777344 C 92.332031 231.832031 93.527344 230.726562 94.941406 229.945312 C 94.929688 229.953125 94.917969 229.957031 94.90625 229.964844 C 95.210938 229.800781 95.523438 229.652344 95.84375 229.527344 C 95.847656 229.523438 95.847656 229.519531 95.84375 229.519531 " fill-opacity="1" fill-rule="nonzero"/><path fill="#ffffff" d="M 38.433594 255.554688 C 38.433594 255.554688 38.433594 255.554688 38.433594 255.558594 C 38.433594 255.554688 38.433594 255.554688 38.433594 255.554688 M 38.492188 254.910156 C 38.492188 254.910156 38.492188 254.914062 38.488281 254.917969 C 38.492188 254.914062 38.492188 254.910156 38.492188 254.910156 M 38.65625 254.601562 C 38.652344 254.609375 38.648438 254.613281 38.644531 254.621094 C 38.648438 254.613281 38.652344 254.609375 38.65625 254.601562 M 38.671875 254.582031 C 38.667969 254.585938 38.664062 254.59375 38.660156 254.597656 C 38.664062 254.589844 38.667969 254.585938 38.671875 254.582031 M 39.027344 254.222656 C 39.015625 254.234375 39.003906 254.242188 38.992188 254.25 C 39.003906 254.242188 39.015625 254.234375 39.027344 254.222656 M 39.898438 253.726562 C 39.875 253.734375 39.847656 253.75 39.824219 253.757812 C 39.847656 253.746094 39.875 253.734375 39.898438 253.726562 M 86.054688 250.367188 C 85.582031 250.488281 85.105469 250.585938 84.625 250.664062 C 84.640625 250.660156 84.65625 250.65625 84.675781 250.652344 C 82.617188 250.96875 80.515625 250.894531 78.445312 250.746094 C 76.316406 250.59375 74.199219 250.332031 72.070312 250.171875 C 70.980469 250.089844 69.890625 250.058594 68.800781 250.019531 C 67.476562 249.972656 66.152344 249.914062 64.828125 249.855469 C 62.179688 249.742188 59.53125 249.632812 56.878906 249.605469 C 55.554688 249.589844 54.230469 249.597656 52.90625 249.636719 C 51.953125 249.664062 51 249.703125 50.046875 249.800781 C 48.988281 249.914062 47.929688 250.09375 46.882812 250.308594 C 45.496094 250.59375 44.121094 250.957031 42.789062 251.4375 C 41.542969 251.890625 40.277344 252.4375 39.25 253.289062 C 38.859375 253.617188 38.507812 254.015625 38.332031 254.503906 C 38.183594 254.917969 38.246094 255.359375 38.460938 255.738281 C 38.464844 255.742188 38.46875 255.738281 38.46875 255.734375 C 38.453125 255.675781 38.441406 255.621094 38.433594 255.5625 C 38.417969 255.441406 38.410156 255.324219 38.425781 255.203125 C 38.425781 255.207031 38.421875 255.21875 38.421875 255.222656 C 38.433594 255.117188 38.453125 255.015625 38.488281 254.917969 C 38.53125 254.804688 38.589844 254.699219 38.660156 254.597656 C 38.765625 254.457031 38.890625 254.335938 39.027344 254.222656 C 39.296875 254.019531 39.59375 253.859375 39.902344 253.722656 C 41.082031 253.222656 42.378906 253 43.636719 252.804688 C 43.570312 252.8125 43.503906 252.824219 43.4375 252.832031 C 44.8125 252.621094 46.199219 252.480469 47.585938 252.367188 C 48.480469 252.292969 49.378906 252.21875 50.273438 252.183594 C 52.785156 252.074219 55.300781 252.027344 57.816406 252.066406 C 60.464844 252.113281 63.113281 252.230469 65.761719 252.347656 C 68.109375 252.445312 70.453125 252.546875 72.796875 252.601562 C 74.933594 252.652344 77.078125 252.632812 79.203125 252.390625 C 81.566406 252.117188 83.984375 251.59375 86.058594 250.371094 C 86.058594 250.371094 86.058594 250.367188 86.058594 250.367188 C 86.058594 250.367188 86.054688 250.367188 86.054688 250.367188 " fill-opacity="1" fill-rule="nonzero"/><path fill="#ffffff" d="M 72.195312 255.667969 C 72.214844 255.65625 72.234375 255.648438 72.257812 255.640625 C 72.261719 255.636719 72.261719 255.636719 72.265625 255.632812 C 72.242188 255.644531 72.21875 255.65625 72.195312 255.667969 M 57.238281 260.808594 C 57.179688 260.816406 57.121094 260.824219 57.0625 260.835938 C 57.121094 260.824219 57.179688 260.816406 57.238281 260.808594 M 80.320312 252.011719 C 77.644531 253.230469 74.964844 254.453125 72.265625 255.632812 L 72.296875 255.621094 C 72.285156 255.628906 72.269531 255.632812 72.257812 255.640625 C 72.226562 255.652344 72.195312 255.664062 72.167969 255.679688 L 72.390625 255.582031 C 72.285156 255.628906 72.175781 255.675781 72.070312 255.722656 C 72.109375 255.703125 72.152344 255.683594 72.195312 255.667969 C 70.632812 256.347656 69.066406 257.011719 67.488281 257.65625 C 65.878906 258.3125 64.265625 258.953125 62.609375 259.488281 C 60.78125 260.074219 58.914062 260.539062 57.015625 260.839844 C 54.679688 261.183594 52.324219 261.226562 49.972656 261 C 47.9375 260.777344 45.933594 260.335938 44.007812 259.625 C 41.898438 258.816406 39.914062 257.71875 38.078125 256.398438 C 38.074219 256.394531 38.070312 256.402344 38.074219 256.402344 C 39.21875 257.839844 40.539062 259.105469 42.027344 260.179688 C 43.441406 261.203125 45 261.984375 46.640625 262.566406 C 49.820312 263.691406 53.242188 263.792969 56.558594 263.363281 C 60.039062 262.914062 63.410156 261.925781 66.664062 260.621094 C 69.988281 259.289062 73.085938 257.46875 75.996094 255.390625 C 77.054688 254.636719 78.085938 253.847656 79.097656 253.035156 C 79.09375 253.035156 79.089844 253.035156 79.085938 253.039062 C 79.503906 252.703125 79.917969 252.363281 80.328125 252.019531 C 80.328125 252.015625 80.328125 252.011719 80.324219 252.011719 C 80.324219 252.011719 80.324219 252.011719 80.320312 252.011719 " fill-opacity="1" fill-rule="nonzero"/><path fill="#ffffff" d="M 25.121094 275.988281 C 25.042969 275.957031 24.964844 275.929688 24.886719 275.898438 C 24.964844 275.929688 25.042969 275.957031 25.121094 275.988281 M 59.085938 281.839844 C 54.066406 280.074219 48.746094 279.464844 43.503906 278.742188 C 40.839844 278.378906 38.214844 277.742188 35.632812 276.988281 C 33.113281 276.25 30.644531 275.363281 28.140625 274.578125 C 26.574219 274.082031 24.996094 273.621094 23.378906 273.320312 C 21.582031 272.988281 19.730469 272.84375 17.921875 273.171875 C 16.59375 273.410156 15.304688 273.992188 14.378906 274.996094 C 14.375 275 14.378906 275.007812 14.382812 275.003906 C 14.613281 274.859375 14.851562 274.738281 15.101562 274.628906 C 15.089844 274.632812 15.082031 274.636719 15.074219 274.640625 C 15.550781 274.4375 16.050781 274.296875 16.558594 274.21875 C 17.285156 274.113281 18.019531 274.121094 18.746094 274.191406 C 20.851562 274.429688 22.886719 275.144531 24.867188 275.890625 C 25.679688 276.199219 26.492188 276.515625 27.308594 276.820312 C 28.425781 277.238281 29.5625 277.613281 30.695312 277.988281 C 33.242188 278.835938 35.804688 279.644531 38.414062 280.265625 C 41.101562 280.910156 43.828125 281.3125 46.585938 281.488281 C 49.226562 281.652344 51.875 281.640625 54.519531 281.683594 C 56.042969 281.707031 57.5625 281.75 59.085938 281.851562 C 59.085938 281.847656 59.085938 281.84375 59.085938 281.839844 " fill-opacity="1" fill-rule="nonzero"/><g clip-path="url(#13bb855eaf)"><path fill="#ffffff" d="M 17.113281 280.96875 C 17.148438 280.996094 17.1875 281.023438 17.222656 281.050781 C 17.1875 281.023438 17.148438 280.996094 17.113281 280.96875 M 28.164062 285.238281 C 28.128906 285.234375 28.09375 285.234375 28.058594 285.226562 C 28.09375 285.230469 28.128906 285.234375 28.164062 285.238281 M 55.6875 280.816406 C 53.789062 280.480469 51.84375 280.546875 49.945312 280.839844 C 47.898438 281.152344 45.902344 281.683594 43.929688 282.300781 C 40.84375 283.269531 37.820312 284.503906 34.617188 285.03125 C 32.425781 285.355469 30.179688 285.429688 27.972656 285.21875 C 26.09375 285.007812 24.265625 284.550781 22.496094 283.894531 C 20.570312 283.144531 18.75 282.148438 17.074219 280.9375 C 15.207031 279.5625 13.523438 277.960938 11.972656 276.238281 C 11.96875 276.234375 11.964844 276.238281 11.96875 276.242188 C 13.015625 278.371094 14.335938 280.359375 15.972656 282.082031 C 17.488281 283.683594 19.3125 285.027344 21.3125 285.960938 C 23.460938 286.964844 25.769531 287.457031 28.117188 287.679688 C 30.546875 287.90625 33.015625 287.765625 35.414062 287.363281 C 39.421875 286.699219 43.164062 285.042969 46.878906 283.476562 C 49.433594 282.402344 52.046875 281.359375 54.796875 280.933594 C 54.785156 280.9375 54.777344 280.9375 54.765625 280.9375 C 55.070312 280.894531 55.378906 280.855469 55.683594 280.824219 C 55.6875 280.824219 55.691406 280.816406 55.6875 280.816406 " fill-opacity="1" fill-rule="nonzero"/></g></svg>